<svg xmlns="http://www.w3.org/2000/svg" width="546.77" height="106.133" viewBox="0 0 512.5965 99.499977"><path fill="#fff" stroke-width=".938" d="M0 0h181.523v99.383H0z"/><path fill="#fff" stroke-width="1.131" d="M0 0h181.611v57.108H0z"/><path d="M145.025 99.436c-.1-.038-.106-.14-.022-.364.106-.284.156-.307.566-.256.371.047.48.014.636-.193.299-.396.068-.682-.474-.588-.416.073-.422.068-.342-.228.254-.943.279-.891-.48-1.03a4.573 4.573 0 0 1-2.428-1.323c-.996-1.03-1.341-2.072-1.242-3.747.05-.853.129-1.186.418-1.78.885-1.815 2.907-2.741 5.625-2.575.589.036 1.336.129 1.66.207l.591.141.034 1.016.034 1.016h-.359c-.211 0-.359-.057-.359-.14 0-.285-.723-.945-1.234-1.127-.66-.234-1.94-.18-2.582.108-1.466.66-2.135 2.373-1.689 4.329.207.908.55 1.517 1.204 2.143.62.593 1.245.832 2.182.835.992.003 1.686-.367 2.122-1.133.297-.52.402-.583.688-.415.134.079.135.26.008 1.094l-.152.999-.538.173c-.297.095-.978.203-1.513.24-.924.062-.975.079-.975.324 0 .195.066.258.27.258.394 0 .764.284.85.654.102.43-.226 1.065-.657 1.273-.312.15-1.527.209-1.842.09zm-70.254-.462c-1.023-.28-1.904-.703-2.965-1.421l-.916-.621-1.417-.068c-1.57-.075-2.12-.238-3.136-.932-2.24-1.528-2.32-5.418-.153-7.311 1.632-1.426 4.502-1.72 6.568-.674 2.79 1.412 3.086 5.577.552 7.759-.393.339-.778.616-.856.616-.241 0 2.534 1.413 3.345 1.702.897.32 1.944.362 2.711.11.558-.183.654-.16.747.172.055.195-.04.277-.605.52-.89.384-2.757.455-3.875.148zm-3.463-3.394c1.977-.96 2.354-4.037.734-6.002-1.5-1.82-4.13-1.545-5.12.537-.892 1.88.127 4.788 1.949 5.558.737.311 1.679.276 2.437-.093zM9.251 96.718c-.542-.22-1.137-.905-2.077-2.391-1.445-2.283-1.716-2.618-2.12-2.618h-.349l.002 1.236c.005 2.255.249 3.026 1.013 3.205.204.047.284.142.284.338v.273H1.163v-.259c0-.196.09-.283.371-.358.205-.054.484-.238.62-.408.243-.302.248-.412.248-4.576 0-4.165-.005-4.275-.248-4.576a1.398 1.398 0 0 0-.62-.409c-.271-.072-.371-.164-.371-.34 0-.24.013-.241 2.999-.313 3.178-.076 3.878-.02 4.774.384.782.352 1.435 1.42 1.436 2.351.002 1.066-.85 2.27-1.975 2.79l-.59.273 1.302 1.814c1.532 2.135 2.013 2.705 2.465 2.923.423.203.463.646.068.744-.475.119-2.027.065-2.39-.083zm-2.954-6.12c1.583-.409 2.117-2.454.919-3.52-.563-.5-1.161-.683-1.925-.585l-.586.075v4.152l.561-.001a4.96 4.96 0 0 0 1.03-.122zm27.206 6.121c-.647-.215-1.257-.598-1.58-.992-.587-.716-.649-1.092-.656-4.004-.008-3.044-.07-3.379-.67-3.638-.241-.104-.382-.245-.384-.385-.002-.21.076-.22 2.005-.22 2.003 0 2.008.001 2.008.248 0 .166-.071.247-.216.247-.118 0-.344.128-.502.283l-.286.284v2.984c0 2.808.014 3.01.245 3.418.36.639 1.079.967 2.002.916.994-.056 1.532-.383 1.928-1.176.305-.608.308-.638.31-3.31.002-2.39-.021-2.728-.206-2.99-.115-.163-.34-.327-.502-.364-.183-.043-.294-.147-.294-.277 0-.193.11-.207 1.594-.207 1.485 0 1.595.014 1.595.207 0 .13-.11.234-.292.276-.544.127-.587.363-.652 3.534l-.06 2.973-.356.646c-.42.762-1.099 1.29-1.973 1.531-.738.204-2.465.213-3.058.016zm46.052 0c-.654-.217-1.258-.6-1.592-1.007-.557-.679-.637-1.18-.644-4.048-.008-2.981-.071-3.32-.67-3.58-.241-.103-.382-.244-.383-.384-.003-.21.075-.22 2.004-.22 1.985 0 2.008.003 2.008.24 0 .161-.084.251-.254.275-.14.02-.366.174-.502.345-.232.29-.25.471-.287 2.878-.045 2.957.044 3.58.583 4.093.974.927 3 .668 3.574-.457.361-.709.454-1.596.41-3.92-.048-2.462-.127-2.769-.75-2.914-.184-.043-.295-.147-.295-.277 0-.193.11-.207 1.595-.207 1.48 0 1.594.014 1.594.206 0 .125-.137.26-.346.34-.19.073-.386.215-.436.315-.05.1-.12 1.52-.156 3.156l-.066 2.973-.355.646c-.42.762-1.1 1.29-1.974 1.531-.738.204-2.465.213-3.058.016zm37.377-.004c-.472-.192-1.033-.842-1.902-2.205-1.122-1.76-1.25-1.92-1.542-1.92-.261-.002-.265.02-.265 1.374 0 1.642.147 2.105.703 2.208.28.052.36.125.36.328v.261h-4.016v-.26c0-.204.08-.277.36-.329.672-.125.72-.422.68-4.245l-.037-3.385-.286-.284c-.157-.155-.383-.283-.502-.283-.133 0-.215-.08-.215-.21 0-.181.12-.22.866-.286.476-.041 1.791-.057 2.922-.033 1.84.037 2.109.067 2.549.283.781.383 1.22 1.13 1.22 2.078 0 .9-.555 1.69-1.562 2.226-.321.17-.53.342-.461.38.067.04.589.725 1.16 1.523 1.118 1.568 1.74 2.276 1.999 2.276.227 0 .207.51-.024.592-.335.12-1.635.062-2.008-.09zm-2.182-5.167c.469-.225.93-.768 1.016-1.197.112-.551-.15-1.278-.6-1.673-.417-.366-.82-.471-1.518-.396l-.425.047v3.38h.596c.328 0 .747-.072.93-.16zm52.56 5.148c-.353-.089-.664-.18-.69-.205-.025-.024-.112-.517-.191-1.095l-.145-1.051h.333c.183 0 .333.04.333.09 0 .287.775 1.128 1.224 1.33 1.215.547 2.673.033 2.672-.942 0-.64-.334-1.023-1.472-1.686-1.596-.93-2.213-1.422-2.531-2.018-.318-.594-.374-1.519-.135-2.194.158-.445.9-1.11 1.525-1.367.628-.258 2.596-.25 3.411.014l.62.201v1.96h-.342c-.265 0-.357-.062-.415-.273-.123-.459-.756-1.032-1.286-1.164-1.418-.355-2.553.997-1.663 1.98.17.188.94.74 1.712 1.227 1.495.942 2.047 1.455 2.232 2.073.407 1.361-.27 2.563-1.728 3.07-.782.273-2.475.297-3.463.05zm-154.693-.231c0-.195.066-.253.286-.253.17 0 .387-.119.532-.29.235-.278.244-.415.244-3.74 0-2.414-.041-3.525-.137-3.692-.176-.308-.456-.507-.719-.511-.14-.003-.206-.092-.206-.278v-.275h7.085v2.32l-.31-.034c-.234-.026-.343-.127-.443-.409-.233-.655-.622-.823-2.027-.87l-1.235-.043v3.128l.95-.051c1.035-.056 1.556-.29 1.626-.73.028-.174.121-.236.354-.236h.317v2.856h-.325c-.262 0-.324-.05-.324-.258 0-.49-.394-.672-1.548-.714l-1.05-.039v1.543c0 1.858.018 1.884 1.366 1.884 1.33 0 2.023-.314 2.37-1.071.176-.383.584-.492.71-.19.082.2-.251 1.49-.501 1.939l-.177.318-3.42-.026-3.418-.025v-.253zm9.092.035c0-.2.08-.275.348-.325.623-.116.652-.279.692-3.807.042-3.673-.009-4.004-.654-4.283-.269-.116-.382-.24-.384-.422l-.002-.258 2.686.046c2.905.049 3.142.092 3.93.708.864.677 1.089 2.024.503 3.024-.51.873-1.394 1.337-2.802 1.471l-.738.07-.183-.425-.183-.425.436-.06c.555-.075 1.156-.401 1.475-.8.182-.226.247-.464.24-.878-.015-1.07-.66-1.724-1.788-1.81l-.638-.05.036 3.666c.04 3.998.06 4.11.716 4.235.245.047.325.127.325.323v.261h-4.015v-.26zm19.602-.04c0-.17.07-.248.223-.248.122 0 .348-.095.502-.21l.278-.21.036-3.404c.04-3.81-.005-4.098-.683-4.336-.213-.075-.356-.204-.356-.32 0-.178.163-.199 1.8-.224 3.446-.052 4.167-.016 4.728.236.726.327 1.066.8 1.126 1.57.027.347.016.752-.024.9-.117.431-.667.958-1.275 1.22l-.563.242.476.133a2.385 2.385 0 0 1 1.714 2.614c-.127 1.005-.59 1.57-1.665 2.03-.565.242-.715.253-3.454.254l-2.863.001v-.248zm5.207-.827c.602-.374.841-.883.774-1.649-.1-1.152-.966-1.836-2.325-1.836h-.721l.038 1.658c.036 1.588.05 1.666.316 1.867.408.306 1.394.286 1.918-.04zm-.487-4.563c.725-.259 1.106-.787 1.03-1.427-.1-.86-.846-1.338-2.086-1.338h-.712v2.965l.62-.006c.34-.003.857-.09 1.148-.194zm4.844 5.396c0-.177.082-.249.313-.274.176-.02.422-.17.561-.345.24-.3.248-.429.248-3.68 0-2.7-.033-3.423-.167-3.643-.208-.343-.48-.54-.748-.545-.135-.003-.207-.09-.207-.251 0-.247 0-.247 2.126-.247 2.125 0 2.125 0 2.125.247 0 .172-.07.247-.23.247-.126 0-.378.12-.56.265l-.332.265-.034 3.464-.034 3.463.302.184c.24.146.495.174 1.227.135 1.124-.06 1.65-.32 1.963-.965.208-.43.429-.534.74-.35.116.069.097.272-.09.952-.13.476-.32.981-.42 1.124l-.182.259-3.3-.033-3.3-.032v-.24zm8.266.034c0-.203.08-.276.36-.328.652-.12.703-.42.702-4.102 0-3.058-.015-3.294-.232-3.625-.128-.195-.367-.386-.531-.424-.203-.047-.299-.145-.299-.305 0-.231.034-.235 2.007-.235s2.008.004 2.008.235c0 .159-.095.257-.294.304-.161.037-.387.201-.502.364-.187.266-.208.63-.208 3.65 0 3.728.048 4.028.667 4.143.257.047.337.124.337.323v.26H59.14zm28.222-.02c0-.18.09-.257.36-.308.651-.12.702-.42.702-4.114 0-3.236-.004-3.287-.27-3.655-.148-.205-.387-.389-.53-.408-.189-.025-.262-.11-.262-.302v-.267h6.967v1.153c0 1.143-.003 1.153-.283 1.153-.228 0-.296-.072-.358-.38-.132-.652-.614-.872-2.026-.92l-1.195-.041-.076.521c-.043.287-.077.99-.077 1.565v1.043l1.004-.058c1.106-.064 1.544-.245 1.664-.688.052-.196.153-.273.356-.273h.282v2.855h-.295c-.201 0-.297-.06-.3-.192-.01-.543-.572-.796-1.77-.796h-.964l.04 1.546c.05 1.874.038 1.859 1.456 1.859 1.252 0 1.903-.28 2.243-.961.172-.344.302-.467.495-.467.144 0 .298.054.342.12.107.162-.416 1.947-.63 2.146-.14.13-.74.153-3.522.134l-3.353-.024v-.24zm12.989.026c0-.18.11-.3.375-.412.207-.086.485-.296.62-.467.237-.3.245-.435.245-4.448 0-4.654-.01-4.71-.825-4.96-.323-.1-.415-.187-.415-.394v-.266h8.266v2.746h-.355c-.288 0-.354-.046-.354-.248-.001-.404-.446-.961-.918-1.15-.279-.11-.926-.194-1.768-.226l-1.329-.051v3.761l.974-.006c1.299-.007 1.743-.158 2.018-.68.176-.336.28-.412.56-.412h.345v3.309l-.38-.034c-.26-.024-.398-.104-.442-.255-.187-.645-.91-.933-2.346-.933h-.755l.048 1.95c.055 2.224.156 2.55.863 2.787.31.104.414.203.414.392v.252h-4.841v-.254zm18.893-.02c0-.2.063-.274.234-.274.362 0 .775-.685 1.674-2.771 1.202-2.795 2.343-5.636 2.343-5.838 0-.138.123-.177.56-.175l.562.003 1.592 3.796c1.73 4.123 2.049 4.764 2.452 4.929.163.066.266.204.266.357 0 .248-.001.248-2.008.248h-2.007v-.26c0-.202.08-.276.351-.327.507-.094.538-.414.144-1.5l-.34-.933h-2.79l-.28.769c-.354.968-.334 1.631.051 1.682.193.025.266.109.266.302v.267h-3.07v-.275zm5.432-3.845c0-.167-.868-2.36-.934-2.36-.043 0-.163.21-.267.467l-.493 1.208-.303.742h.998c.55 0 .999-.026.999-.057zm5.077 3.86c0-.197.08-.277.325-.324.639-.121.667-.276.717-3.867.051-3.705.001-4.017-.685-4.258-.213-.075-.357-.204-.357-.32 0-.177.133-.196 1.329-.196h1.328l.768.904a144.47 144.47 0 0 0 2.42 2.72c.91.999 1.775 1.964 1.924 2.144l.271.327-.038-2.481c-.042-2.703-.108-2.982-.741-3.13-.184-.043-.294-.147-.294-.276 0-.194.11-.208 1.594-.208 1.497 0 1.594.013 1.594.212 0 .133-.094.225-.253.247-.14.02-.366.174-.502.345-.24.3-.25.444-.284 4.365l-.037 4.056h-.514c-.466 0-.553-.045-.906-.467-.312-.373-5.314-6.136-5.505-6.342-.028-.03-.028 1.18 0 2.69.058 3.063.13 3.429.694 3.534.26.048.34.124.34.324v.261h-3.186v-.26zm20.665-.015c0-.163.067-.274.166-.274.234 0 .671-.515.984-1.158.435-.894 2.455-5.746 2.802-6.727l.322-.912.528.033.528.033 1.566 3.734c.862 2.054 1.662 3.907 1.777 4.118.264.483.649.879.853.879.088 0 .156.12.156.274v.275h-4.014v-.275c0-.19.064-.274.212-.274.572 0 .625-.464.191-1.675l-.305-.851h-2.771l-.252.741c-.474 1.4-.452 1.785.105 1.785.158 0 .222.079.222.274v.275h-3.07v-.275zm5.01-4.914c-.223-.62-.438-1.2-.476-1.29-.042-.099-.278.321-.587 1.043-.283.664-.517 1.245-.52 1.29-.001.046.445.083.993.083h.996l-.406-1.126zm5.38 4.914c0-.214.061-.274.278-.274.152 0 .378-.104.502-.231.21-.215.227-.468.26-3.652.018-1.881.005-3.53-.032-3.664-.084-.313-.517-.69-.793-.69-.143 0-.214-.082-.214-.247 0-.247.005-.247 2.007-.247 1.93 0 2.008.008 2.008.22 0 .138-.129.273-.342.361-.188.078-.397.275-.464.439-.172.42-.27 3.848-.162 5.7.074 1.29.128 1.595.31 1.784.122.125.32.227.44.227.153 0 .218.08.218.274v.275h-4.015v-.275zm13.226-.02c0-.196.066-.254.287-.254.169 0 .387-.119.531-.29.236-.278.245-.415.245-3.74 0-2.414-.041-3.525-.137-3.692-.176-.308-.457-.507-.72-.511-.14-.003-.206-.091-.206-.278v-.275h7.085v2.321l-.31-.035c-.233-.026-.343-.127-.443-.409-.233-.655-.621-.822-2.027-.87l-1.235-.043v3.1l.738-.006c1.025-.01 1.524-.187 1.742-.623.13-.26.256-.355.472-.357l.296-.002v2.855h-.325c-.262 0-.325-.05-.325-.258 0-.49-.394-.672-1.547-.714l-1.05-.038v1.542c0 1.859.018 1.884 1.366 1.884 1.33 0 2.023-.313 2.37-1.07.175-.383.584-.493.709-.19.082.2-.25 1.489-.5 1.938l-.178.318-3.419-.023-3.419-.024v-.255zM15.811 86.447l-.288-.206.702-.998c.386-.548.777-.998.869-1 .4-.004 1.67.25 1.639.328-.064.155-2.394 2.086-2.515 2.084-.065 0-.248-.094-.407-.208zM.808 78.86h179.84v.988H.808zm68.445-2.248c-.944-.313-1.476-1.132-1.304-2.01.116-.591.476-1.005 1.114-1.28l.558-.24-.34-.181c-.193-.103-.34-.275-.34-.397 0-.2.867-1.002 1.08-1.002.052 0-.022-.183-.164-.406-.605-.954-.12-2.332 1.008-2.872.611-.293.818-.305 2.958-.178 1.231.074 1.277.086 1.212.31a1.908 1.908 0 0 0-.07.318c0 .045-.208.082-.462.082h-.461l.062.638c.136 1.393-.93 2.347-2.649 2.373-.893.013-1.326.19-.977.398.097.058.673.255 1.281.438 1.955.589 2.317.885 2.233 1.83-.086.983-.936 1.839-2.164 2.183-.704.197-1.975.195-2.575-.004zm2.63-.678c.958-.444 1.373-1.29.85-1.732-.354-.297-1.888-.754-2.286-.68-.809.15-1.565 1.068-1.425 1.73.192.911 1.628 1.253 2.86.682zm.316-4.969c.72-.408.997-1.567.513-2.14-.663-.783-1.924.09-1.935 1.34-.004.39.056.526.326.742.399.319.616.33 1.096.058zm4.477 2.548c-.518-.098-.796-.42-.855-.991-.151-1.462 1.17-3.604 2.65-4.295.77-.36 2.287-.396 3.298-.08.09.03.024.405-.21 1.177-.457 1.51-.719 3.022-.569 3.283.099.171.169.183.482.082.289-.094.388-.087.47.033.17.25.066.345-.608.56-.907.288-1.323.232-1.46-.198l-.107-.34-.483.252c-.816.424-1.932.646-2.608.517zm2.042-.987c.343-.152.701-.385.795-.52.158-.223.639-1.87.827-2.83.077-.393.067-.407-.362-.517-.793-.204-1.59.334-2.226 1.501-.667 1.224-.835 2.315-.4 2.598.294.192.475.161 1.366-.232zm55.908.955c-.53-.117-.717-.288-.862-.788-.22-.759.289-2.194 1.153-3.256 1.035-1.27 2.185-1.7 3.884-1.448.447.066.848.155.891.197.043.041-.106.743-.331 1.558-.226.816-.42 1.804-.433 2.197l-.022.714.502-.021c.45-.019.501.004.501.23 0 .21-.11.281-.68.442-.94.264-1.375.208-1.423-.185-.021-.166-.06-.302-.086-.302-.026 0-.335.119-.686.263-.565.232-1.716.526-1.942.495-.046-.006-.255-.05-.466-.096zm1.977-.94c.292-.136.618-.339.723-.451.261-.279.73-1.712.973-2.974.065-.336.045-.36-.402-.471-.383-.096-.547-.084-.883.065-.75.33-1.494 1.453-1.88 2.835-.369 1.324.092 1.636 1.469.996zm-128.06.69c-.036-.136.175-1.157.467-2.27.577-2.194.572-2.372-.06-2.203-.313.083-.348.067-.348-.157 0-.21.11-.28.679-.434.373-.101.865-.196 1.092-.21.39-.023.416-.003.451.344.021.202-.183 1.206-.452 2.23-.27 1.025-.46 1.94-.42 2.033.055.136.18.155.609.095.514-.072.537-.063.5.176-.03.199-.176.292-.688.441-.357.104-.9.192-1.208.196-.485.005-.567-.026-.623-.24zm4.539.045l-.27-.203.916-3.738c.503-2.056.897-3.88.876-4.053-.04-.323-.083-.34-.54-.21-.227.063-.267.034-.267-.202 0-.32.415-.475 1.565-.583.659-.062.679-.056.679.202 0 .146-.186 1.05-.413 2.008-.228.958-.414 1.806-.414 1.884 0 .107.13.09.513-.068 1.315-.541 2.461-.512 2.873.072.385.547.186 1.962-.44 3.122-.326.604-1.295 1.544-1.821 1.766-.692.292-2.87.294-3.257.002zm2.988-.697c.592-.39 1.252-1.706 1.438-2.87.187-1.165-.641-1.397-1.964-.55a1.6 1.6 0 0 0-.62.734c-.213.538-.654 2.29-.654 2.605 0 .462 1.143.514 1.8.081zm4.51.563c-.32-.311-.347-.399-.34-1.126.017-1.854 1.15-3.513 2.711-3.97.78-.228 1.464-.15 1.923.217.265.212.318.344.318.793 0 1.131-1.108 1.989-2.704 2.092-.46.03-.877.11-.925.177-.133.186-.106.821.046 1.09.294.52.717.533 1.73.05.63-.301.76-.33.854-.192.208.306.112.403-.807.804-.764.333-1.05.401-1.69.401-.705 0-.799-.028-1.116-.336zm2.114-2.638c1.005-.259 1.668-1.258 1.153-1.737-.325-.302-.625-.292-1.042.035-.332.26-.872 1.083-1.032 1.574-.067.207-.035.247.194.246.15 0 .478-.053.727-.118zm3.974 2.937c0-.018.213-.87.472-1.892.26-1.023.472-2.076.472-2.34l.001-.481-.472.07c-.419.062-.473.045-.473-.15 0-.24.382-.424 1.34-.647.656-.152.904-.047.904.38v.258l.42-.264c.736-.465 1.187-.55 1.722-.326.256.107.45.248.43.314-.321 1.05-.504 1.381-.763 1.381-.232 0-.274-.056-.274-.37 0-.8-.747-.805-1.29-.01-.337.494-.686 1.62-.963 3.109-.083.444-.208.823-.277.842-.208.057-1.249.161-1.249.126zm5.924-.106c-.13-.146-.06-.54.616-3.398l.279-1.181h-.398c-.22 0-.398-.028-.398-.062 0-.172.264-.487.408-.487.288 0 .84-.52 1.073-1.01.259-.546.362-.633.747-.636.254 0 .273.033.204.355a23.79 23.79 0 0 0-.148.77l-.071.411h.546c.559 0 .64.084.475.485-.051.125-.23.174-.636.174-.657 0-.55-.22-1.073 2.185-.385 1.767-.359 1.93.28 1.76.534-.143.577-.131.535.146-.029.187-.18.291-.628.43-.723.225-1.636.254-1.811.058zm4.763-.142c-.864-.867-.24-3.333 1.137-4.484.561-.47 1.438-.832 2.011-.832.363 0 1.163.346 1.283.555.19.331.131 1.121-.112 1.492-.497.76-1.57 1.248-2.74 1.248h-.694v.58c0 1.125.503 1.322 1.825.716.421-.193.789-.329.817-.302.029.027.07.148.093.269.032.176-.132.3-.832.631-.758.358-.979.412-1.688.412-.727 0-.847-.03-1.1-.285zm2.078-2.697c.624-.197 1.062-.529 1.25-.95.16-.354.155-.408-.054-.67-.324-.406-.643-.408-1.132-.009-.378.308-1.02 1.341-1.02 1.64 0 .153.454.148.956-.01zm44.348 2.91c-.167-.156-.059-.804.508-3.044.77-3.048 1.184-4.842 1.184-5.133 0-.208-.048-.229-.413-.173-.376.056-.413.038-.413-.201 0-.275.294-.397 1.468-.607.606-.108.775-.036.775.327 0 .164-.398 1.901-.884 3.86-.487 1.958-.886 3.728-.886 3.933v.371l.539-.068c.507-.065.537-.055.501.173-.029.188-.185.286-.687.432-.663.193-1.55.26-1.692.13zm4.451-.062c-.145-.218-.062-.693.441-2.53.262-.956.456-1.823.432-1.926-.047-.197-.076-.202-.591-.09-.274.06-.325.037-.325-.155 0-.262.504-.495 1.423-.657.656-.116.939-.056.939.197 0 .094-.24 1.104-.535 2.245-.294 1.14-.5 2.126-.456 2.19.047.072.28.091.601.05.49-.062.522-.05.487.176-.03.188-.185.286-.687.432-.769.223-1.604.256-1.729.068zm4.361-.049c-.041-.1-.01-.459.07-.796.264-1.107.84-3.64.84-3.692 0-.028-.163-.051-.363-.051-.513 0-.417-.307.186-.597.359-.172.566-.391.862-.913.338-.594.436-.687.724-.687h.333l-.158.687c-.087.377-.16.723-.163.769-.002.045.262.082.586.082.617 0 .632.012.516.412-.062.216-.148.247-.682.247h-.61l-.398 1.853c-.218 1.02-.365 1.931-.326 2.026.057.14.146.153.46.069.541-.145.568-.137.568.156 0 .223-.097.285-.687.44-.915.238-1.658.236-1.758-.005zm4.863-.065c-.294-.236-.345-.365-.387-.98-.094-1.382.586-2.942 1.596-3.66 1.115-.792 2.333-.897 3.018-.26.317.295.346.378.294.875-.112 1.087-1.233 1.878-2.767 1.95-.96.045-1.06.153-.872.926.205.842.577.929 1.759.409.783-.345.963-.345.963 0 0 .352-1.417.916-2.43.968-.753.038-.869.016-1.174-.228zm2.54-2.936c.736-.349 1.052-1.126.633-1.557-.528-.542-1.504.168-1.99 1.446l-.177.47.532-.068a3.983 3.983 0 0 0 1.001-.29zm28.223 3.144c0-.017.212-.867.472-1.89.26-1.022.472-2.075.472-2.34l.001-.48-.472.07c-.417.062-.473.045-.473-.147 0-.266.208-.374 1.165-.605.831-.2 1.079-.123 1.079.336v.257l.42-.264c.734-.464 1.187-.55 1.717-.328.253.106.46.223.46.259 0 .036-.118.374-.264.752-.218.567-.31.686-.531.686-.224 0-.267-.059-.267-.37 0-.751-.694-.807-1.212-.098-.394.539-.596 1.124-.918 2.665-.146.694-.297 1.293-.337 1.331-.07.067-1.312.224-1.312.166zm13.62-.131c-.097-.235.014-.912.47-2.849l.388-1.647-.33-.035c-.397-.04-.464-.406-.095-.515.415-.122.894-.575 1.126-1.063.259-.547.362-.635.748-.637.253-.001.273.033.203.355a23.79 23.79 0 0 0-.148.77l-.07.41h.546c.558 0 .64.085.474.486-.051.125-.23.174-.636.174-.657 0-.549-.22-1.073 2.185-.384 1.767-.358 1.93.28 1.76.534-.143.577-.131.535.146-.028.187-.18.291-.628.43-.786.244-1.696.26-1.79.03zm4.764-.113c-.895-.832-.277-3.321 1.115-4.485.561-.47 1.438-.832 2.011-.832.363 0 1.163.346 1.284.555.19.331.13 1.121-.112 1.492-.5.763-1.572 1.248-2.755 1.248h-.708l.053.674c.083 1.07.505 1.216 1.8.622.421-.193.789-.33.817-.302.029.027.07.148.093.269.033.176-.132.3-.832.631-.75.355-.982.412-1.666.412-.697 0-.832-.035-1.1-.284zm2.475-2.862c.826-.382 1.196-1.267.681-1.63-.342-.24-.59-.2-1.044.171-.38.31-1.012 1.34-1.012 1.648 0 .181.816.07 1.375-.19zm3.584 3.052c0-.046.216-.937.48-1.98.263-1.042.462-2.052.442-2.244-.034-.327-.063-.348-.467-.326-.337.017-.443-.023-.49-.189-.048-.172.055-.25.55-.42a8.27 8.27 0 0 1 1.05-.283c.458-.077.45-.083.737.562.006.012.32-.124.7-.302.814-.382.95-.393 1.446-.112l.373.212-.255.718c-.213.6-.3.72-.521.722-.223.002-.266-.057-.266-.36 0-.957-.98-.768-1.515.293-.135.266-.402 1.185-.593 2.041-.192.857-.367 1.572-.39 1.59-.103.08-1.28.152-1.28.078zm5.904 0c0-.05.19-.777.422-1.618.253-.917.43-1.834.442-2.296l.022-.769-.428.03c-.337.024-.44-.013-.487-.176-.047-.17.053-.239.547-.379 1.073-.304 1.326-.325 1.534-.132a.696.696 0 0 1 .192.445c0 .147.022.267.048.267.027 0 .378-.145.78-.322.951-.418 2.213-.638 2.59-.45.245.122.263.185.19.688-.043.305-.234 1.153-.424 1.884-.19.732-.36 1.503-.377 1.714-.032.385-.032.385.465.376.34-.007.518.043.564.155.094.227-.018.301-.758.503-.84.228-1.613.23-1.706.004-.039-.094.141-1.051.4-2.127.52-2.158.55-2.404.303-2.492-.255-.09-1.158.322-1.697.775-.444.372-.5.488-.773 1.577a27.167 27.167 0 0 0-.378 1.705c-.046.292-.143.547-.216.568-.358.099-1.255.15-1.255.07zm8.1-.085c-.041-.099.17-1.116.468-2.261.298-1.145.514-2.148.48-2.23-.047-.115-.152-.126-.45-.046a6.782 6.782 0 0 1-.42.104c-.016 0-.03-.115-.03-.255 0-.211.104-.284.62-.429 1.399-.393 1.831-.326 1.69.261a343.78 343.78 0 0 1-.54 2.118c-.264 1.022-.45 1.931-.414 2.019.05.121.193.143.603.09.504-.064.535-.053.5.174-.073.47-2.333.88-2.508.455zm4.454 0c-.079-.19.017-.714.479-2.621.51-2.109.503-1.922.075-1.922-.52 0-.433-.303.17-.597.347-.17.561-.395.838-.886.303-.536.434-.666.702-.695.358-.04.361-.012.108 1.162l-.077.357h.618c.515 0 .606.029.546.173-.04.096-.072.244-.072.33 0 .115-.165.156-.634.156h-.635l-.39 1.847c-.214 1.015-.357 1.927-.316 2.025.06.147.145.16.463.075.541-.144.568-.137.568.157 0 .223-.098.285-.687.439-.906.236-1.658.237-1.756 0zm4.854-.075c-.338-.27-.345-.298-.345-1.363 0-1.035.021-1.125.446-1.925.522-.981 1.12-1.512 2.083-1.847 1.676-.583 2.88.408 2.138 1.76-.42.765-1.538 1.317-2.676 1.32-.684.003-.73.02-.803.291-.099.366.024.918.26 1.167.27.283.73.236 1.555-.16.614-.294.75-.325.841-.192.21.308.105.426-.685.781-.609.274-.995.369-1.633.401-.758.04-.868.017-1.18-.233zm2.572-2.957c.798-.417 1.065-1.237.511-1.574-.218-.133-.374-.152-.62-.076-.416.128-1.01.846-1.257 1.517l-.19.518.543-.07c.298-.037.754-.18 1.013-.315zM.004 73.18c.022-.106.145-.21.274-.232.351-.06.657-.35.897-.846.317-.66 1.296-5.245 1.323-6.195.022-.811.019-.821-.357-1.044-.732-.434-.537-.499 1.501-.499 1.615 0 1.89.024 1.89.167 0 .1-.148.195-.358.235-.753.14-1.04.831-1.75 4.232-.664 3.179-.658 3.117-.36 3.395.227.21.35.229 1.271.186 1.238-.058 1.685-.252 2.118-.918.34-.524.354-.533.598-.39.136.08.13.182-.031.63a6.522 6.522 0 0 1-.46.974l-.268.44-3.164.029c-2.963.027-3.162.017-3.124-.164zm59.727.034c0-.086.2-.246.443-.357.309-.14.522-.351.702-.696.338-.645 1.361-5.322 1.38-6.31.014-.746.005-.769-.365-.988-.792-.469-.613-.499 2.985-.499 3.301 0 3.372.005 3.3.216-.041.119-.14.551-.222.961-.124.632-.186.75-.406.78-.211.029-.26-.019-.26-.254 0-.73-.464-.934-2.12-.934h-1.14l-.328 1.4a69.39 69.39 0 0 1-.385 1.592c-.051.173.049.193.984.191 1.176-.002 1.523-.118 1.868-.629.307-.454.707-.49.614-.056l-.274 1.318c-.165.801-.25 1.016-.407 1.016-.126 0-.224-.12-.268-.323a.749.749 0 0 0-.34-.459c-.283-.142-2.14-.205-2.278-.077-.08.073-.428 1.656-.58 2.637-.074.472-.055.531.222.7.243.149.504.175 1.334.136 1.232-.057 1.67-.24 2.177-.909.22-.29.427-.456.524-.421.23.082.203.278-.145 1.053-.517 1.15-.223 1.068-3.845 1.068-2.657 0-3.17-.026-3.17-.156zm59.986.002c0-.087.173-.214.384-.28.745-.237.992-.863 1.738-4.418.642-3.061.626-3.551-.122-3.772-.133-.039-.22-.129-.196-.2.033-.091.958-.135 3.322-.156 3.22-.029 3.274-.026 3.2.188-.04.12-.14.553-.22.963-.126.632-.187.75-.407.78-.22.03-.26-.017-.26-.302 0-.693-.575-.922-2.177-.865l-.937.034-.328 1.427c-.18.786-.33 1.49-.332 1.565-.006.203 1.798.185 2.229-.022.182-.088.398-.31.48-.494.092-.205.235-.335.371-.335.275 0 .277-.08-.032 1.4-.216 1.038-.292 1.236-.474 1.236-.13 0-.216-.08-.216-.2 0-.513-1.104-.894-2.125-.734l-.45.071-.24 1.228c-.423 2.165-.405 2.36.236 2.608.707.272.299.376-1.594.407-1.55.025-1.85.004-1.85-.129zM50.45 70.853c-.528-.223-.99-.913-.99-1.476 0-.873.828-1.653 1.752-1.65 1.105.004 1.789.632 1.79 1.644 0 1.287-1.268 2.024-2.552 1.482zm60.103.052c-.203-.083-.52-.334-.705-.56-.274-.333-.334-.514-.327-.98.016-1.008.69-1.629 1.771-1.629.536 0 .715.054 1.08.328.815.61.942 1.632.292 2.351a1.857 1.857 0 0 1-2.111.49zM39.955 67c-.232-.239-.25-.214 1.093-1.635l.452-.48.673.14c.37.078.673.174.673.214 0 .074-2.529 1.978-2.627 1.978-.029 0-.148-.097-.264-.217zm60.075 0l-.262-.197.891-.946c.49-.52.936-.946.992-.946.288 0 1.3.27 1.272.34-.03.072-2.23 1.718-2.513 1.879-.065.037-.236-.022-.38-.13zm78.497 0l-.285-.2.922-.944c.507-.52.965-.945 1.017-.945.234 0 1.293.264 1.288.32-.006.06-2.235 1.733-2.525 1.895-.073.041-.26-.015-.417-.125zm-168.52-.563c-.48-.446-.012-1.306.71-1.306.504 0 .766.245.766.715 0 .733-.926 1.104-1.477.591zm79.688.078c-.29-.204-.273-.883.03-1.165.486-.453 1.416-.157 1.416.451 0 .658-.898 1.102-1.446.714zm78.424-.078c-.489-.454-.01-1.306.734-1.306.741 0 1.06.77.523 1.268-.364.338-.917.355-1.257.038zM64.667 63.3c-.18-.187-.138-.254.717-1.118l.908-.92.676.141c.371.077.672.17.669.205-.01.105-2.38 1.794-2.589 1.845-.104.025-.276-.044-.381-.153z" stroke-width="1.131"/><path d="M103.924 57.108l.276-.662c.467-1.197.95-2.11 1.65-3.113.74-1.062 2.369-2.626 3.047-2.925.833-.368 1.868-.497 3.149-.394 1.1.089 4.478.603 5.842.889 1.037.217 2.557.238 3.272.044 1.377-.372 2.193-1.093 2.58-2.278.298-.91.295-1.736-.007-2.287-.406-.74-.337-.933.649-1.81.487-.433.886-.833.887-.89.005-.293-.67-1.47-.844-1.473-.107-.001-.317-.096-.468-.21l-.274-.206.586-.278c.8-.38 1.392-.971 1.392-1.388 0-.18-.168-.622-.374-.981-.395-.69-.5-1.349-.278-1.736.147-.255.4-.363 1.645-.697 1.046-.282 1.424-.567 1.573-1.186.128-.53.065-.871-.277-1.508-.279-.519-2.094-3.105-2.622-3.737-.71-.849-1.576-2.316-1.832-3.104-.253-.778-.254-.822-.07-1.827.389-2.125.161-3.887-.946-7.322-.823-2.553-1.044-3.173-1.302-3.65-.466-.864-.403-1.066.552-1.794.458-.349.883-.722.945-.83.289-.502-.034-1.469-.58-1.741-.348-.173-.541-.054-.894.548-.267.457-.371.543-.657.543-.465 0-.547-.181-.25-.555.347-.436.32-.506-.225-.574-.407-.05-.623-.199-1.505-1.035-1.184-1.121-1.98-1.638-3.565-2.316-.727-.31-.98-.458-.713-.415.227.037 1.031.097 1.786.132 2.19.102 2.723-.167 3.234-1.635.346-.996.513-1.457-.283-2.153L116.104 0h65.507v57.108z" fill="#e2011c" stroke-width="1.131"/><path d="M48.063 57.108c-.475-.046-.887-.066-.916-.093-.05-.046.487-.367 2.946-1.761.79-.447 1.114-.687 1.004-.742-.089-.044-.777-.114-1.53-.156-1.118-.061-1.442-.044-1.771.097-.222.095-1.107.344-1.967.554-2.132.52-2.85.878-3.534 1.76l-.256.341H0V0h83.406L81.79.981c-.89.41-1.924.982-2.298 1.268-1.268.972-2.977 3.183-3.403 4.406-.157.449-.3.617-.78.923-.734.466-1.614 1.354-2.342 2.366-.989 1.374-2.873 4.47-3.243 5.328-.575 1.332-.523 2.347.325 6.328.373 1.753.777 3.534.898 3.957.12.423.252 1.14.292 1.593.073.81.13.985.639 1.978.14.272.253.581.253.686 0 .106.106.253.236.329a.514.514 0 0 1 .236.414c0 .19.27.552.86 1.155 1.351 1.38 2.328 2.674 2.328 3.083 0 .336-.53.423-1.384.227-.998-.23-1.814-.724-3.073-1.864-.536-.485-.974-.81-.974-.724 0 .086.367.537.816 1.001.893.925 1.033 1.177.84 1.512-.169.294-.58.38-1.136.237-.642-.165-1.018.065-.912.557.065.302.047.338-.136.272-.363-.13-1.157-.278-1.87-.35-.656-.065-.705-.092-1.102-.606-.3-.39-.534-.57-.849-.651-1.171-.306-4.086-.778-6.043-.978-3.44-.352-4.268-.38-5.915-.198-1.266.14-1.61.222-2.303.55-1.227.58-3.354 2.398-3.354 2.867 0 .22.469.142 1.004-.166 1.625-.936 7.189-2.257 9.919-2.355 1.353-.049 1.28.011-.344.282-.449.075-1.511.328-2.361.563-.85.235-2.316.596-3.258.803-.942.208-2.005.475-2.362.594l-.65.217 1.004.01c5.115.052 10.944 1.562 13.317 3.45 1.02.812 1.395.91 2.896.763 2.058-.201 4.722-1.115 5.89-2.02.507-.393.924-.55.923-.346-.001.359-.673 2.289-.963 2.767-.323.534-.342.611-.173.726.103.07.158.156.122.19-.036.033.044.093.179.133.387.115.29.225-.329.373-.602.144-1.08.396-1.08.57 0 .057.084.104.185.104.303 0 .077.197-.32.278-.27.056-.325.101-.205.172.118.07.123.097.016.098-.081 0-.147.113-.147.25 0 .17-.112.293-.355.393-.59.244-.425.375.384.305.406-.036.658-.035.56 0-.096.036-.76.316-1.475.622-.714.306-1.644.67-2.067.807-.477.156-.783.32-.808.436-.041.185.18.179.738-.02.104-.037.187-.025.186.027-.002.051-1.232.712-2.733 1.467-1.502.756-2.907 1.535-3.123 1.731-.215.197-.491.357-.613.357s-.282.125-.358.28c-.23.469-.182.526.365.438.812-.13 1.184-.122 1.238.024.03.08-.047.138-.18.138a.567.567 0 0 0-.374.158c-.077.087-.282.174-.455.192-.202.022-.4.16-.553.384-.13.192-.344.375-.473.406-.13.031.056.036.413.012 5.311-.368 6.3-.55 8.443-1.561 1.827-.862 3.724-2.143 5.074-3.427.387-.368.746-.67.797-.67.183 0 .083.616-.187 1.158-.47.937-1.453 1.8-3.475 3.049-1.02.63-2.12 1.223-2.445 1.318-1.015.297-2.653.614-4.37.845-5.594.752-7.735 1.323-9.855 2.627-.355.218-.728.384-.828.368-.1-.016-.368.119-.595.299-.637.507-.175.42 1.147-.213 1.354-.65 1.99-.752.921-.149-1.31.74-2.308 1.204-3.285 1.204h-5.255zm-6.948-6.37c.212-.083.914-.449 1.56-.814.647-.364 1.414-.764 1.707-.887l1.83-.77c1.497-.628 3.695-1.22 3.821-1.03.044.066.372.14.728.163.498.032.585.062.38.13-.145.047-.265.13-.265.184 0 .198 1.105.139 1.57-.085.183-.088.595-.189.916-.224.4-.044.584-.115.584-.224 0-.124.102-.143.462-.086.497.078 1.564-.11 4.439-.781 1.946-.455 3.42-.912 4.716-1.463l.937-.4-.937-.558c-2.285-1.362-4.58-2.198-9.617-3.505-.877-.228-1.647-.463-1.712-.523-.078-.072-.039-.082.118-.03.503.168.886.2.886.074 0-.163-.38-.294-1.128-.39-.683-.086-1.124-.276-.65-.279.735-.004-.528-.437-1.942-.666-1.047-.17-1.107-.206-.67-.403.381-.171.791-.821.683-1.083-.091-.222-.205-.199-.772.155-1.091.682-2.093 1.8-2.655 2.964-.321.663-.21.724 1.442.79 1.353.054 1.374.059 1.028.232-.195.097-.586.21-.869.25-.96.138-1.494.562-1.018.81.141.073.085.136-.262.29-.39.172-.417.209-.23.306.117.061.457.093.755.07.415-.03.604.012.803.177l.262.217-.524.309c-.288.17-.614.467-.725.661-.11.194-.505.655-.879 1.025-.373.37-.679.752-.679.85 0 .097-.544.583-1.21 1.078-1.79 1.333-2.568 2.066-2.568 2.418a.541.541 0 0 1-.28.463c-.558.341-.85.735-.543.735.067 0 .295-.068.508-.15zm13.813-1.284c.442-.055.955-.183 1.138-.284l.334-.184-.57-.264-.57-.264-.568.214c-.313.118-.746.277-.962.353-.872.307-.985.72-.168.606.309-.042.923-.122 1.366-.177zm-19.993-4.998c2.631-2.56 4.488-4.08 6.845-5.6.801-.516 1.366-.815 1.394-.737.076.214.42.15.978-.18.642-.379.963-.762 1.764-2.108.831-1.396 1.146-1.745 2.345-2.605.562-.402 1.388-1.003 1.837-1.335.647-.478.802-.553.75-.364-.042.147-.014.239.073.239.268 0 1.532-.502 1.577-.626.07-.195-1.215-.395-2.165-.338-.73.043-.987.122-1.892.576-2.127 1.069-3.663 2.221-6.596 4.949-2.111 1.962-3.774 3.278-4.614 3.651-.274.122-.48.377-.812 1.003-.646 1.219-1.798 2.967-2.892 4.387-1.033 1.343-1.255 1.807-.452.947a79.837 79.837 0 0 1 1.86-1.859zM61.267 56.48c3.16-.611 3.51-.657 5.727-.747 2.49-.102 2.808-.162 4.306-.817.48-.21.668-.248.735-.15.116.173.929-.239 2.517-1.275.649-.423 1.567-.965 2.04-1.203.713-.359.931-.42 1.274-.36.366.063.475.021.942-.361 1.296-1.062 2.402-1.553 3.507-1.556.329 0 .443.044.443.175 0 .112.065.154.177.114.33-.118.18.017-.666.6-.98.677-.884.88.112.238.965-.621.968-.622.968-.371 0 .143-.363.503-1.034 1.023-1.524 1.184-2.604 2.163-4.247 3.852l-1.47 1.467H57.902l3.365-.629zm.03-22.371c.114-.028.3-.028.413 0 .114.028.02.05-.207.05-.227 0-.32-.022-.206-.05z" fill="#003189" stroke-width="1.131"/><path d="M116.38 29.929c-.516-.073-.25-.251.375-.251.626 0 .956-.224.956-.648 0-.2-.047-.232-.247-.173-.173.05-.296.008-.41-.143-.105-.14-.361-.24-.738-.287-.674-.083-1.765-.688-1.57-.87.068-.062.414-.136.771-.163.616-.048.656-.07.781-.422.094-.263.224-.391.448-.44.173-.038.448-.183.61-.323.163-.139.694-.495 1.181-.79.819-.497 1.326-1.027 1.145-1.196-.191-.178-1.964-.372-2.798-.306-.969.077-2.638.405-3.336.655-.716.257-.507.033.478-.51 1.328-.734 3.887-1.418 5.302-1.418.548 0 2.385.404 2.604.573.428.33-.039 1.49-.834 2.07l-.332.241.273.271.273.271-.279.21c-.153.116-.363.21-.466.21-.104 0-.36.155-.57.344-.322.291-.363.385-.27.612a.545.545 0 0 1-.02.494c-.08.138-.1.453-.052.81.098.732-.044.994-.617 1.142-.426.11-1.983.132-2.658.037z" fill="#7f7f7f" stroke-width="1.131"/><g style="line-height:125%" font-weight="400" font-size="14.948" font-family="sans-serif" letter-spacing="0" word-spacing="0" fill="#373c42"><path d="M237.278 61.846h6.442V28.689h-6.442v11.848c-2.325-2.162-4.989-3.243-8.089-3.243-6.684 0-12.11 5.135-12.11 12.614 0 7.343 5.716 12.569 12.255 12.569 3.246 0 5.668-1.081 7.944-3.154zm-6.781-19.056c4.069 0 7.072 2.838 7.072 7.028 0 4.37-3.1 7.163-7.072 7.163-4.02 0-6.927-3.019-6.927-7.118 0-3.92 2.664-7.073 6.927-7.073zm38.758 19.056h6.442V37.924h-6.442v2.613c-2.325-2.162-4.99-3.243-8.09-3.243-6.684 0-12.109 5.135-12.109 12.614 0 7.343 5.716 12.569 12.255 12.569 3.246 0 5.667-1.081 7.944-3.154zm-6.781-19.056c4.068 0 7.072 2.838 7.072 7.028 0 4.37-3.1 7.163-7.072 7.163-4.02 0-6.927-3.019-6.927-7.118 0-3.92 2.664-7.073 6.927-7.073zm20.496-4.866h-3.293v5.136h3.294v18.786h6.442V43.06h3.827v-5.136h-3.827v-8.83h-6.442zm32.831 23.922h6.442V37.924h-6.442v2.613c-2.325-2.162-4.989-3.243-8.09-3.243-6.684 0-12.109 5.135-12.109 12.614 0 7.343 5.716 12.569 12.255 12.569 3.246 0 5.668-1.081 7.944-3.154zM309.02 42.79c4.069 0 7.072 2.838 7.072 7.028 0 4.37-3.1 7.163-7.072 7.163-4.02 0-6.927-3.019-6.927-7.118 0-3.92 2.664-7.073 6.927-7.073zm23.258 12.794c-2.035 0-3.73 1.487-3.73 3.424 0 1.892 1.695 3.469 3.73 3.469 2.083 0 3.681-1.577 3.681-3.47 0-1.891-1.647-3.423-3.681-3.423zm35.471-17.66h-6.442v2.613c-2.422-2.117-4.941-3.243-8.138-3.243-6.54 0-12.013 4.865-12.013 12.253 0 7.163 5.425 12.299 12.352 12.299 3.342 0 5.667-1.036 7.799-2.973 0 2.252-.049 3.874-1.599 5.226-1.162.99-3.1 1.576-5.473 1.576-2.713 0-4.65-.63-5.958-2.072h-7.12c1.743 5 6.248 7.568 13.32 7.568 3.923 0 7.023-.856 9.348-2.658 2.955-2.342 3.924-5.45 3.924-10.09zm-13.127 4.866c4.263 0 7.024 2.973 7.024 6.847 0 4.055-2.955 6.713-6.927 6.713-4.02 0-7.072-2.793-7.072-6.758 0-3.694 2.713-6.802 6.975-6.802zm31.735-5.496c-7.024 0-13.32 5.36-13.32 12.614 0 7.028 5.909 12.569 13.368 12.569 7.847 0 13.611-5.677 13.611-12.614 0-7.073-6.151-12.57-13.66-12.57zm.097 5.676c4.214 0 7.072 2.883 7.072 6.938 0 4.19-3.1 6.892-7.072 6.892-4.166 0-6.927-2.883-6.927-6.937 0-3.965 2.906-6.893 6.927-6.893zm18.778 5.902c0 1.982-.097 3.108.242 5.045 1.017 5.586 4.844 8.515 11.044 8.515 3.584 0 6.248-.901 8.283-3.019 2.712-2.793 3.003-6.036 3.003-10.451V37.924h-6.442v12.75c0 4.054-1.405 6.262-4.844 6.262-3.39 0-4.844-2.253-4.844-6.533V37.924h-6.442zm37.324 12.974h4.166l10.947-23.922h-6.539l-6.49 14.101-6.491-14.1h-6.588z" style="-inkscape-font-specification:'Century Gothic Std Bold'" font-weight="700" font-size="46.714" font-family="Century Gothic Std"/><path d="M463.07 57.105q1.225 0 2.05.794.855.768.855 1.881 0 1.112-.854 1.907-.855.768-2.05.768-1.197 0-2.051-.768-.826-.795-.826-1.907 0-1.113.826-1.88.854-.795 2.05-.795zm27.027-18.595l-.512 1.748h-4.158l-3.133 11.576q-2.08 7.655-4.187 11.84-2.99 5.906-6.436 8.158-2.62 1.722-5.24 1.722-1.71 0-2.905-.954-.883-.662-.883-1.722 0-.847.74-1.483.712-.61 1.766-.61.77 0 1.31.451.513.45.513 1.033t-.598 1.086q-.456.371-.456.556 0 .239.2.371.256.186.797.186 1.224 0 2.592-.716 1.338-.715 2.392-2.145 1.054-1.404 1.993-4.08.4-1.112 2.136-7.336l4.956-17.933h-4.956l.4-1.748q2.363 0 3.303-.291.94-.318 1.709-1.166.797-.874 2.05-3.231 1.68-3.179 3.218-4.927 2.108-2.357 4.415-3.523 2.335-1.192 4.386-1.192 2.164 0 3.474 1.033 1.31 1.007 1.31 2.199 0 .927-.655 1.563-.655.635-1.68.635-.883 0-1.453-.477-.54-.476-.54-1.139 0-.423.37-1.033.37-.635.37-.847 0-.371-.257-.556-.37-.265-1.082-.265-1.794 0-3.218 1.06-1.908 1.403-3.418 4.396-.769 1.563-2.82 7.761z" style="-inkscape-font-specification:'Times New Roman, Italic'" font-style="italic" font-size="56.25" font-family="Times New Roman"/><path d="M492.034 39.358l9.826-1.484-4.101 12.874q4.983-7.92 9.056-11.072 2.307-1.802 3.76-1.802.94 0 1.48.53.542.503.542 1.484 0 1.748-.969 3.337-.683 1.192-1.965 1.192-.655 0-1.14-.397-.455-.398-.569-1.219-.057-.503-.256-.662-.228-.212-.541-.212-.484 0-.911.212-.741.37-2.25 2.066-2.364 2.596-5.127 6.728-1.196 1.748-2.05 3.947-1.196 3.02-1.367 3.629l-.912 3.337h-4.357l5.269-16.449q.911-2.86.911-4.08 0-.476-.427-.794-.57-.424-1.51-.424-.598 0-2.193.239z" style="-inkscape-font-specification:'Times New Roman, Italic'" font-style="italic" font-size="56.25" font-family="Times New Roman"/></g></svg>