<?xml version="1.0" encoding="UTF-8" standalone="no"?>
<!-- Created with Inkscape (http://www.inkscape.org/) -->

<svg
   xmlns:dc="http://purl.org/dc/elements/1.1/"
   xmlns:cc="http://creativecommons.org/ns#"
   xmlns:rdf="http://www.w3.org/1999/02/22-rdf-syntax-ns#"
   xmlns:svg="http://www.w3.org/2000/svg"
   xmlns="http://www.w3.org/2000/svg"
   xmlns:sodipodi="http://sodipodi.sourceforge.net/DTD/sodipodi-0.dtd"
   xmlns:inkscape="http://www.inkscape.org/namespaces/inkscape"
   version="1.1"
   width="546.76959"
   height="106.13331"
   id="svg2"
   inkscape:version="0.92.0 r"
   sodipodi:docname="logo-header.svg"
   viewBox="0 0 512.5965 99.499977">
  <metadata
     id="metadata11">
    <rdf:RDF>
      <cc:Work
         rdf:about="">
        <dc:format>image/svg+xml</dc:format>
        <dc:type
           rdf:resource="http://purl.org/dc/dcmitype/StillImage" />
        <dc:title />
      </cc:Work>
    </rdf:RDF>
  </metadata>
  <sodipodi:namedview
     pagecolor="#ffffff"
     bordercolor="#666666"
     borderopacity="1"
     objecttolerance="10"
     gridtolerance="10"
     guidetolerance="10"
     inkscape:pageopacity="0"
     inkscape:pageshadow="2"
     inkscape:window-width="3200"
     inkscape:window-height="1698"
     id="namedview9"
     showgrid="false"
     fit-margin-top="0"
     fit-margin-left="0"
     fit-margin-right="0"
     fit-margin-bottom="0"
     inkscape:zoom="8.0000002"
     inkscape:cx="111.29179"
     inkscape:cy="71.451598"
     inkscape:window-x="0"
     inkscape:window-y="50"
     inkscape:window-maximized="1"
     inkscape:current-layer="svg2" />
  <defs
     id="defs4" />
  <g
     id="g4513">
    <rect
       y="0"
       x="0"
       height="99.38279"
       width="181.52344"
       id="rect4505"
       style="fill:#ffffff;fill-opacity:1;stroke-width:0.9375" />
    <rect
       style="fill:#ffffff;stroke:none;stroke-width:1.13068187"
       id="rect6"
       y="0"
       x="0"
       height="57.108166"
       width="181.61058" />
    <path
       inkscape:connector-curvature="0"
       style="fill:#000000;stroke:none;stroke-width:1.13068187"
       id="path8"
       d="m 145.02497,99.436406 c -0.10018,-0.03799 -0.1064,-0.139741 -0.0222,-0.364351 0.10662,-0.284524 0.15582,-0.306754 0.56575,-0.255613 0.3718,0.04636 0.48121,0.01323 0.63655,-0.193075 0.29871,-0.396643 0.0682,-0.682774 -0.47392,-0.588192 -0.41575,0.07259 -0.42225,0.06818 -0.34215,-0.228601 0.25436,-0.942593 0.27852,-0.890672 -0.47942,-1.030459 -0.90229,-0.166391 -1.7656,-0.636472 -2.42871,-1.322423 -0.99569,-1.029983 -1.34099,-2.071918 -1.24176,-3.746876 0.0505,-0.853258 0.12871,-1.185927 0.41798,-1.779286 0.88528,-1.815864 2.90737,-2.741825 5.62525,-2.575931 0.58845,0.03596 1.33558,0.129113 1.66031,0.207084 l 0.59041,0.141788 0.0339,1.015861 0.0339,1.015873 h -0.35869 c -0.21153,0 -0.35867,-0.05733 -0.35867,-0.139719 0,-0.285293 -0.72309,-0.945533 -1.23447,-1.127177 -0.66002,-0.234435 -1.94055,-0.180988 -2.58199,0.107754 -1.46614,0.660002 -2.13459,2.37329 -1.68883,4.328533 0.20711,0.908447 0.54928,1.517839 1.20345,2.143264 0.62006,0.592817 1.24556,0.832103 2.18276,0.835032 0.9912,0.0034 1.68515,-0.367336 2.1216,-1.132503 0.29652,-0.519887 0.40231,-0.583669 0.68836,-0.415073 0.13313,0.07847 0.13435,0.25922 0.008,1.093222 l -0.15206,0.999229 -0.53882,0.173164 c -0.29632,0.0952 -0.97718,0.202924 -1.51298,0.239286 -0.92384,0.06275 -0.97418,0.07949 -0.97418,0.324359 0,0.195529 0.0654,0.258248 0.26894,0.258248 0.39437,0 0.76431,0.284061 0.85166,0.65393 0.10142,0.429761 -0.22736,1.065543 -0.65833,1.27282 -0.31173,0.149928 -1.52646,0.209187 -1.84117,0.08978 z m -70.25442,-0.4622 c -1.022235,-0.280285 -1.903844,-0.703103 -2.96424,-1.421651 l -0.916093,-0.620767 -1.416987,-0.06762 c -1.571156,-0.07496 -2.120134,-0.238065 -3.13649,-0.931965 -2.238922,-1.528569 -2.320209,-5.418352 -0.152801,-7.311599 1.631657,-1.42527 4.50212,-1.719745 6.56829,-0.673853 2.789383,1.411984 3.085519,5.577383 0.551644,7.759225 -0.393209,0.338583 -0.778318,0.615792 -0.855795,0.61603 -0.241345,7.91e-4 2.533655,1.412561 3.345057,1.701846 0.896456,0.319621 1.943856,0.362327 2.711117,0.11058 0.558147,-0.183147 0.653547,-0.161201 0.74721,0.171909 0.0547,0.194568 -0.04078,0.27652 -0.605681,0.519831 -0.890469,0.383539 -2.756357,0.454817 -3.875231,0.148029 z m -3.462559,-3.394047 c 1.977255,-0.960684 2.353684,-4.037179 0.734368,-6.001852 -1.500698,-1.820748 -4.130953,-1.545122 -5.119593,0.536509 -0.893251,1.880776 0.125888,4.78846 1.948111,5.558127 0.737513,0.311514 1.678768,0.275683 2.437114,-0.09283 z M 9.2512487,96.718326 C 8.7088989,96.498171 8.1138761,95.813328 7.1735797,94.327013 5.7289888,92.043567 5.4582474,91.709021 5.0549269,91.709021 H 4.7050797 l 0.00239,1.235507 c 0.00433,2.25501 0.2481156,3.026711 1.0125228,3.205144 0.2044844,0.04772 0.284008,0.142591 0.284008,0.338764 v 0.27246 H 3.5833088 1.1626214 V 96.50223 c 0,-0.195913 0.090205,-0.282738 0.3717516,-0.357838 0.2044617,-0.0545 0.4834311,-0.238302 0.619932,-0.40838 0.2422236,-0.30179 0.2481808,-0.411647 0.2481808,-4.576208 0,-4.164607 -0.00596,-4.274419 -0.2481808,-4.576119 C 2.0178041,86.413676 1.7388347,86.229951 1.534373,86.175407 1.262716,86.10293 1.1626214,86.011345 1.1626214,85.835185 c 0,-0.239987 0.013345,-0.241378 2.9991964,-0.312837 3.1779396,-0.07609 3.878241,-0.01979 4.7739814,0.383493 0.782521,0.352321 1.4347638,1.419843 1.4365848,2.351265 0.0021,1.066334 -0.8505644,2.270669 -1.975667,2.790556 l -0.5889485,0.272144 1.3016945,1.814496 c 1.53138,2.134682 2.012308,2.70493 2.464775,2.922541 0.422389,0.20315 0.462965,0.646264 0.06819,0.744656 -0.474947,0.118383 -2.0276953,0.06434 -2.3911667,-0.08322 z M 6.2965293,90.598115 C 7.8795147,90.189384 8.4137795,88.143517 7.2157895,87.077997 6.652643,86.577116 6.0546256,86.395302 5.2913783,86.492937 l -0.5862986,0.07496 v 2.076339 2.076339 l 0.5608907,-7.92e-4 C 5.5744605,90.719448 6.0382122,90.66461 6.2965293,90.5979 Z m 27.2067337,6.120991 c -0.647172,-0.215101 -1.257382,-0.598119 -1.580422,-0.992026 -0.587079,-0.715869 -0.648728,-1.09225 -0.655904,-4.004412 -0.0075,-3.043818 -0.06907,-3.37824 -0.669755,-3.637822 -0.241307,-0.104249 -0.382128,-0.245335 -0.383704,-0.384375 -0.0024,-0.211132 0.07539,-0.219646 2.004881,-0.219646 2.003015,0 2.007378,3.95e-4 2.007337,0.247099 -2.4e-5,0.166007 -0.07079,0.247099 -0.21562,0.247099 -0.118568,0 -0.344401,0.127518 -0.50185,0.28336 l -0.286269,0.283361 v 2.983892 c 0,2.808173 0.01445,3.00949 0.24531,3.41882 0.360059,0.638383 1.078302,0.966756 2.001992,0.915276 0.993799,-0.0554 1.531369,-0.383177 1.928171,-1.175751 0.304478,-0.608171 0.307296,-0.638293 0.309465,-3.309235 0.002,-2.391686 -0.02126,-2.728788 -0.205945,-2.990947 -0.114477,-0.162502 -0.34031,-0.326315 -0.50185,-0.364023 -0.183403,-0.04285 -0.293712,-0.146582 -0.293712,-0.276305 0,-0.193505 0.109167,-0.20774 1.59411,-0.20774 1.484938,0 1.594113,0.01425 1.594113,0.20774 0,0.129361 -0.110117,0.23344 -0.291802,0.275852 -0.54376,0.126942 -0.587173,0.362361 -0.651538,3.533189 l -0.06036,2.973467 -0.355474,0.645993 c -0.41956,0.762452 -1.099085,1.28961 -1.973774,1.531192 -0.737835,0.203794 -2.465092,0.212794 -3.0574,0.01594 z m 46.052103,0 C 78.901002,96.50162 78.296917,96.119687 77.962673,95.712121 77.406062,95.033407 77.32626,94.531497 77.319036,91.66411 c -0.0076,-2.981269 -0.071,-3.320518 -0.66975,-3.579264 -0.241312,-0.104249 -0.382128,-0.245335 -0.383709,-0.384375 -0.0024,-0.211132 0.07541,-0.219646 2.004886,-0.219646 1.984043,0 2.007376,0.0023 2.007337,0.239455 -2.8e-5,0.160908 -0.08331,0.250978 -0.253877,0.274564 -0.139614,0.01933 -0.365443,0.174509 -0.501849,0.344914 -0.23242,0.290348 -0.250462,0.471291 -0.28699,2.878004 -0.04488,2.956847 0.04388,3.580429 0.582536,4.092854 0.97448,0.927001 2.999917,0.668063 3.573897,-0.456909 0.361499,-0.708519 0.45429,-1.596149 0.409825,-3.920447 -0.04707,-2.460997 -0.126075,-2.767807 -0.750142,-2.913484 -0.183399,-0.04285 -0.293713,-0.146582 -0.293713,-0.276305 0,-0.193505 0.109179,-0.20774 1.594113,-0.20774 1.481074,0 1.59411,0.0147 1.59411,0.206326 0,0.124579 -0.136987,0.259096 -0.345759,0.339522 -0.190171,0.07327 -0.386434,0.215168 -0.43614,0.315335 -0.0497,0.100179 -0.119945,1.52027 -0.156087,3.155756 l -0.06571,2.973626 -0.355474,0.645834 c -0.419568,0.762283 -1.099228,1.289497 -1.973774,1.531034 -0.737832,0.203794 -2.465088,0.212794 -3.057396,0.01594 z m 37.376624,-0.0045 c -0.47199,-0.19112 -1.0334,-0.84194 -1.90204,-2.204966 -1.1218,-1.760268 -1.24925,-1.919061 -1.54154,-1.920553 -0.26147,-0.0011 -0.26568,0.02047 -0.26568,1.374954 0,1.642135 0.14741,2.105047 0.70326,2.208448 0.2795,0.05201 0.35948,0.124895 0.35948,0.327694 v 0.260837 h -2.0074 -2.0074 v -0.260837 c 0,-0.202799 0.08,-0.275705 0.35948,-0.327694 0.67273,-0.125144 0.72036,-0.422536 0.67998,-4.245394 l -0.0357,-3.385488 -0.28627,-0.283236 c -0.15745,-0.155774 -0.38328,-0.283235 -0.50185,-0.283235 -0.13366,0 -0.21558,-0.07994 -0.21558,-0.210273 0,-0.181181 0.11984,-0.220721 0.86613,-0.285758 0.47637,-0.0415 1.79151,-0.05665 2.92254,-0.03358 1.83879,0.03754 2.10845,0.0675 2.54831,0.283281 0.78139,0.383347 1.22028,1.130852 1.22028,2.078307 0,0.899988 -0.55478,1.69046 -1.5619,2.225408 -0.3215,0.170778 -0.52919,0.342325 -0.46153,0.38122 0.0676,0.0389 0.58946,0.724055 1.15955,1.522577 1.11914,1.567588 1.74118,2.275542 1.99942,2.275542 0.22761,0 0.20747,0.509881 -0.0234,0.592285 -0.33509,0.119593 -1.63469,0.06162 -2.00807,-0.08955 z m -2.1824,-5.166256 c 0.46937,-0.22574 0.93027,-0.76866 1.01683,-1.197754 0.11114,-0.550958 -0.14961,-1.277738 -0.60018,-1.672968 -0.41726,-0.366001 -0.82031,-0.47094 -1.51786,-0.395207 l -0.42565,0.04624 v 1.690245 1.690245 h 0.59627 c 0.32795,0 0.74671,-0.07236 0.93059,-0.160783 z m 52.56116,5.147249 c -0.35372,-0.08842 -0.66433,-0.180491 -0.69024,-0.204597 -0.0259,-0.02408 -0.11228,-0.516835 -0.19194,-1.094964 L 166.28378,94.3449 h 0.3332 c 0.18326,0 0.3332,0.04093 0.3332,0.09102 0,0.285734 0.77488,1.127357 1.22422,1.329659 1.21449,0.546809 2.67308,0.032 2.67206,-0.943056 -0.001,-0.639887 -0.33478,-1.02234 -1.4725,-1.685655 -1.59643,-0.930732 -2.21287,-1.422194 -2.53126,-2.018018 -0.31742,-0.594027 -0.37413,-1.518461 -0.13456,-2.193625 0.15813,-0.445636 0.89997,-1.111099 1.52447,-1.367515 0.62871,-0.258134 2.59639,-0.249812 3.41135,0.01447 l 0.61993,0.201013 v 0.979589 0.979589 h -0.34145 c -0.26506,0 -0.3579,-0.06094 -0.41499,-0.272551 -0.12379,-0.458661 -0.75679,-1.031397 -1.2866,-1.164083 -1.41736,-0.354966 -2.55257,0.997454 -1.66279,1.980921 0.16993,0.187829 0.94028,0.739477 1.71192,1.225874 1.49464,0.942175 2.04682,1.45521 2.23185,2.073648 0.40713,1.360866 -0.2691,2.562849 -1.72734,3.070276 -0.78248,0.272291 -2.47517,0.29633 -3.46374,0.04918 z M 12.616594,96.464918 c 0,-0.19467 0.06611,-0.253036 0.286636,-0.253036 0.169012,0 0.387064,-0.118744 0.531371,-0.289364 0.235801,-0.278814 0.244735,-0.415378 0.244735,-3.741223 0,-2.413655 -0.04132,-3.523996 -0.13737,-3.691721 -0.17592,-0.307206 -0.456286,-0.506523 -0.718727,-0.510955 -0.140698,-0.0023 -0.206645,-0.09113 -0.206645,-0.278046 v -0.274564 h 3.542469 3.54247 v 1.160442 1.160441 l -0.310016,-0.03471 c -0.233502,-0.02623 -0.342791,-0.127077 -0.442809,-0.408854 -0.232791,-0.655796 -0.621491,-0.822877 -2.027017,-0.871259 l -1.234956,-0.04251 v 1.564095 1.564094 l 0.94978,-0.05111 c 1.035134,-0.05574 1.556407,-0.289478 1.626723,-0.729415 0.02784,-0.17417 0.120745,-0.236041 0.354247,-0.235939 l 0.316514,1.13e-4 v 1.427565 1.427577 l -0.324726,-2.3e-5 c -0.261926,-1.1e-5 -0.324728,-0.04986 -0.324728,-0.257547 0,-0.490422 -0.393743,-0.672201 -1.547296,-0.714342 l -1.050514,-0.03833 v 1.542227 c 0,1.858841 0.01835,1.884157 1.3666,1.884157 1.329644,0 2.022783,-0.313198 2.369796,-1.070778 0.175381,-0.382883 0.584228,-0.492254 0.709071,-0.189672 0.08238,0.199679 -0.250391,1.488961 -0.500337,1.938509 L 19.454974,96.76888 16.035785,96.74344 12.616594,96.718 v -0.253035 z m 9.09234,0.03528 c 0,-0.200888 0.07994,-0.275694 0.347825,-0.325523 0.62302,-0.115895 0.652608,-0.27851 0.692576,-3.806577 0.04162,-3.673427 -0.0089,-4.004321 -0.654078,-4.283113 -0.26908,-0.116279 -0.381964,-0.240496 -0.383767,-0.422276 l -0.0024,-0.257535 2.686369,0.04557 c 2.904592,0.04918 3.141546,0.09193 3.928785,0.708022 0.865192,0.677097 1.089481,2.023762 0.503757,3.024653 -0.510864,0.872977 -1.394099,1.336557 -2.802119,1.470723 l -0.737562,0.07022 -0.183251,-0.42525 -0.183255,-0.425249 0.436335,-0.05936 c 0.554355,-0.07542 1.156346,-0.401924 1.475176,-0.800116 0.181332,-0.226464 0.24631,-0.463964 0.240379,-0.878585 -0.01529,-1.069354 -0.661643,-1.723351 -1.789117,-1.810312 l -0.63807,-0.04919 0.03686,3.665795 c 0.04017,3.997899 0.05916,4.110244 0.715811,4.235388 0.244415,0.04658 0.324724,0.126399 0.324724,0.322719 v 0.260837 h -2.007397 -2.0074 v -0.260837 z m 19.601664,-0.04014 c 0,-0.170089 0.07017,-0.248151 0.223083,-0.248151 0.122696,0 0.348525,-0.09441 0.501851,-0.209821 l 0.278766,-0.209809 0.03574,-3.403997 c 0.04003,-3.810567 -0.0053,-4.098236 -0.683147,-4.336199 -0.212616,-0.07463 -0.356309,-0.203964 -0.356309,-0.320661 0,-0.177789 0.163669,-0.198062 1.800754,-0.223027 3.445968,-0.05258 4.167163,-0.01651 4.72762,0.235758 0.726473,0.327084 1.06592,0.800647 1.125802,1.570596 0.02691,0.346068 0.01612,0.750762 -0.02396,0.899311 -0.116335,0.431095 -0.666725,0.957518 -1.275255,1.219734 l -0.562489,0.242373 0.476445,0.132765 c 1.138432,0.317235 1.864264,1.424399 1.713891,2.61434 -0.126918,1.004351 -0.590333,1.569172 -1.665414,2.029845 -0.564631,0.241944 -0.715449,0.253036 -3.453909,0.254042 l -2.863493,0.0011 v -0.248162 z m 5.207679,-0.826924 c 0.601824,-0.373917 0.840723,-0.883131 0.773684,-1.649055 -0.100857,-1.152312 -0.966216,-1.83565 -2.324614,-1.83565 h -0.721705 l 0.03801,1.657308 c 0.03645,1.588585 0.04959,1.666003 0.316796,1.866993 0.407798,0.306765 1.393115,0.286413 1.917815,-0.03957 z m -0.487633,-4.563466 c 0.724952,-0.258384 1.106479,-0.786254 1.031046,-1.426548 -0.101355,-0.86037 -0.84678,-1.338501 -2.086749,-1.338501 h -0.712285 v 1.482607 1.482617 l 0.619933,-0.0057 c 0.340963,-0.0034 0.857586,-0.09068 1.148055,-0.194195 z m 4.844658,5.396631 c -2.8e-5,-0.177494 0.08131,-0.24884 0.313012,-0.274563 0.175991,-0.01956 0.421557,-0.170496 0.560889,-0.344813 0.239106,-0.299133 0.247842,-0.428856 0.247842,-3.679092 0,-2.700147 -0.03312,-3.423524 -0.166889,-3.643566 -0.208548,-0.343094 -0.480079,-0.541088 -0.748248,-0.545622 -0.134464,-0.0023 -0.206645,-0.08978 -0.206645,-0.250604 0,-0.247099 0,-0.247099 2.125483,-0.247099 2.125483,0 2.125483,0 2.125483,0.247099 0,0.171524 -0.07022,0.247111 -0.229582,0.247111 -0.12627,0 -0.37867,0.119207 -0.560889,0.264918 l -0.331312,0.26493 -0.03427,3.463641 -0.03427,3.463652 0.302182,0.184142 c 0.239203,0.145768 0.494921,0.173775 1.226942,0.134371 1.123651,-0.06049 1.649867,-0.319124 1.962886,-0.964732 0.208265,-0.429546 0.428637,-0.533863 0.739734,-0.350172 0.116781,0.06897 0.09775,0.271872 -0.08934,0.952181 -0.130758,0.475508 -0.31988,0.981149 -0.420267,1.123649 l -0.182527,0.259084 -3.300097,-0.03234 -3.300093,-0.03234 -3.5e-5,-0.239817 z m 8.265725,0.03381 c 0,-0.2028 0.07998,-0.275706 0.359473,-0.327695 0.652008,-0.121277 0.703321,-0.420828 0.702824,-4.102894 -3.54e-4,-3.057782 -0.01556,-3.293823 -0.2325,-3.624751 -0.127635,-0.194692 -0.366553,-0.38537 -0.530927,-0.423746 -0.203386,-0.04749 -0.29887,-0.144908 -0.29887,-0.304956 0,-0.231157 0.03446,-0.235204 2.0074,-0.235204 1.972918,0 2.007397,0.0045 2.007397,0.235204 0,0.158963 -0.0952,0.257411 -0.293713,0.303758 -0.161539,0.03765 -0.387373,0.201453 -0.50185,0.363898 -0.187322,0.265801 -0.208138,0.630819 -0.208138,3.649876 0,3.728819 0.04811,4.027929 0.666407,4.142942 0.257391,0.04783 0.337294,0.124534 0.337294,0.323568 v 0.260837 h -2.007397 -2.0074 z m 28.221671,-0.0199 c 0,-0.180661 0.08997,-0.257705 0.359478,-0.30784 0.652214,-0.121311 0.703266,-0.419958 0.703266,-4.11411 0,-3.236046 -0.004,-3.287209 -0.269745,-3.655144 -0.148359,-0.205253 -0.387473,-0.388966 -0.531371,-0.408267 -0.187998,-0.02521 -0.261628,-0.110242 -0.261628,-0.302016 v -0.266921 h 3.483431 3.483427 v 1.153149 c 0,1.142475 -0.0028,1.153149 -0.282067,1.153149 -0.228224,0 -0.296684,-0.07248 -0.35868,-0.379842 -0.131675,-0.652799 -0.614007,-0.871993 -2.02571,-0.920601 l -1.194668,-0.04116 -0.07684,0.52138 c -0.04227,0.286764 -0.07684,0.990941 -0.07684,1.564853 v 1.043472 l 1.004568,-0.05823 c 1.106006,-0.06422 1.54375,-0.245222 1.663209,-0.687918 0.05283,-0.195744 0.153756,-0.273162 0.356123,-0.273162 h 0.282405 v 1.427701 1.427701 H 93.32585 c -0.200998,0 -0.296407,-0.06128 -0.298963,-0.192182 -0.01063,-0.543598 -0.572547,-0.796226 -1.77104,-0.796226 h -0.963745 l 0.04084,1.54649 c 0.04948,1.873393 0.03745,1.858038 1.455382,1.858038 1.251463,0 1.902289,-0.278837 2.242962,-0.960955 0.171581,-0.343558 0.3022,-0.466746 0.494877,-0.466746 0.143976,0 0.297691,0.05405 0.341594,0.120113 0.107619,0.161947 -0.416172,1.947158 -0.629524,2.145593 -0.140813,0.130956 -0.740408,0.153807 -3.522618,0.134246 l -3.352927,-0.02352 v -0.24096 z m 12.989052,0.026 c 0,-0.180061 0.11003,-0.300795 0.37534,-0.411839 0.20644,-0.08638 0.48541,-0.296657 0.61993,-0.467221 0.23718,-0.300716 0.2446,-0.435617 0.2446,-4.447854 0,-4.654463 -0.009,-4.710545 -0.82453,-4.960765 -0.32304,-0.09916 -0.41534,-0.186607 -0.41534,-0.393533 v -0.266039 h 4.13289 4.13288 v 1.372795 1.372795 h -0.35425 c -0.28852,0 -0.35433,-0.04591 -0.35469,-0.24711 -8e-4,-0.404151 -0.44537,-0.961521 -0.91728,-1.149825 -0.27925,-0.111372 -0.92596,-0.194375 -1.76865,-0.22686 l -1.32843,-0.05122 v 1.88081 1.880822 l 0.97419,-0.0057 c 1.29843,-0.0079 1.74283,-0.158115 2.01711,-0.680196 0.17644,-0.335824 0.27997,-0.41184 0.56089,-0.41184 h 0.34453 v 1.654312 1.654301 l -0.37912,-0.03449 c -0.2604,-0.02363 -0.39907,-0.103231 -0.44281,-0.254064 -0.18729,-0.64597 -0.90993,-0.933491 -2.34616,-0.933491 h -0.75496 l 0.0481,1.949363 c 0.0549,2.224651 0.15552,2.549779 0.86271,2.787618 0.31022,0.104362 0.41443,0.202855 0.41443,0.391871 v 0.252493 h -2.42069 -2.42069 v -0.254743 z m 18.89319,-0.01979 c 0,-0.200684 0.0631,-0.274563 0.23448,-0.274563 0.36183,0 0.77507,-0.684425 1.67322,-2.771256 1.20272,-2.794469 2.34325,-5.635907 2.34325,-5.83779 0,-0.138045 0.123,-0.17633 0.56089,-0.174577 l 0.5609,0.0023 1.59269,3.796717 c 1.72954,4.12293 2.04834,4.763777 2.45162,4.928348 0.16291,0.06648 0.26569,0.204541 0.26569,0.356923 0,0.248388 -0.001,0.248512 -2.0074,0.248512 h -2.00739 v -0.260826 c 0,-0.201442 0.0799,-0.275705 0.35108,-0.326145 0.50749,-0.09441 0.5381,-0.413841 0.14366,-1.499668 l -0.33911,-0.933503 h -1.3953 -1.39531 l -0.28049,0.768762 c -0.35339,0.968622 -0.33292,1.631608 0.052,1.682455 0.19231,0.02533 0.26569,0.108772 0.26569,0.302005 v 0.26692 h -1.53507 -1.53506 v -0.274552 z m 5.43178,-3.845584 c 0,-0.167093 -0.86744,-2.35944 -0.93355,-2.35944 -0.0431,0 -0.16341,0.210036 -0.26749,0.466746 -0.10414,0.256721 -0.32572,0.800342 -0.49252,1.208066 l -0.30326,0.741297 h 0.99841 c 0.54912,0 0.99841,-0.02555 0.99841,-0.05665 z m 5.07753,3.859311 c 0,-0.19632 0.0803,-0.276135 0.32473,-0.322719 0.63879,-0.121741 0.66748,-0.276441 0.7171,-3.867826 0.0512,-3.705029 0.001,-4.016544 -0.68551,-4.25756 -0.21262,-0.07463 -0.35632,-0.203964 -0.35632,-0.320661 0,-0.175968 0.13315,-0.19554 1.32843,-0.195337 l 1.32842,2.26e-4 0.76755,0.90346 c 0.42214,0.496901 1.51145,1.720955 2.42067,2.720127 0.90924,0.999161 1.77501,1.963915 1.92395,2.143897 l 0.27078,0.327242 -0.0382,-2.481021 c -0.0417,-2.703427 -0.10776,-2.982309 -0.74096,-3.130135 -0.18341,-0.04285 -0.29373,-0.146581 -0.29373,-0.276304 0,-0.193517 0.10922,-0.207741 1.59412,-0.207741 1.49624,0 1.59411,0.013 1.59411,0.212015 0,0.132821 -0.0948,0.225118 -0.25384,0.247099 -0.13961,0.01933 -0.36545,0.174543 -0.50185,0.344971 -0.23981,0.299619 -0.2492,0.44412 -0.28419,4.365484 l -0.0362,4.055597 h -0.51479 c -0.46567,0 -0.55203,-0.04455 -0.90519,-0.466745 -0.31218,-0.373238 -5.3147,-6.135838 -5.50576,-6.3423 -0.0279,-0.03019 -0.0276,1.180601 0.001,2.690672 0.0575,3.062101 0.12943,3.42842 0.69343,3.533336 0.26081,0.04851 0.34074,0.124556 0.34074,0.324212 v 0.260825 h -1.59412 -1.59411 v -0.260825 z m 20.66441,-0.01368 c 0,-0.163147 0.0676,-0.274553 0.16663,-0.274553 0.23336,0 0.67104,-0.515342 0.98357,-1.158112 0.43464,-0.893894 2.45549,-5.745334 2.80224,-6.727286 l 0.3219,-0.911623 0.52786,0.03302 0.52785,0.03301 1.56659,3.733987 c 0.86164,2.053703 1.66122,3.90697 1.77688,4.118384 0.264,0.482587 0.64833,0.878585 0.85269,0.878585 0.0883,0 0.15654,0.119774 0.15654,0.274564 v 0.274552 h -2.0074 -2.0074 v -0.274552 c 0,-0.191176 0.0646,-0.274564 0.21255,-0.274564 0.57147,0 0.62443,-0.464111 0.19105,-1.674426 l -0.3049,-0.851506 h -1.38577 -1.38575 l -0.2513,0.741298 c -0.47466,1.400203 -0.45214,1.784634 0.10458,1.784634 0.15778,0 0.22172,0.07915 0.22172,0.274564 v 0.274552 h -1.53507 -1.53507 v -0.274552 z m 5.01024,-4.914588 c -0.22325,-0.619128 -0.43752,-1.199824 -0.47618,-1.290425 -0.0419,-0.09837 -0.27809,0.321702 -0.58635,1.043325 -0.28385,0.664423 -0.51771,1.245119 -0.5197,1.290414 -0.002,0.04534 0.44452,0.08243 0.99226,0.08243 h 0.99589 l -0.40592,-1.125684 z m 5.381,4.914588 c 0,-0.214807 0.0603,-0.274553 0.2769,-0.274553 0.15231,0 0.37814,-0.103909 0.50186,-0.231009 0.20939,-0.215045 0.22734,-0.467571 0.25963,-3.651628 0.0191,-1.881341 0.006,-3.530452 -0.031,-3.664687 -0.0841,-0.312916 -0.51751,-0.689433 -0.79354,-0.689433 -0.14308,0 -0.2139,-0.08186 -0.21393,-0.247099 -4e-5,-0.246568 0.005,-0.2471 2.00732,-0.2471 1.93061,0 2.00739,0.0079 2.00745,0.220291 5e-5,0.137378 -0.12855,0.273241 -0.34167,0.36097 -0.18793,0.07734 -0.39654,0.274767 -0.46356,0.438648 -0.17206,0.420851 -0.26996,3.847835 -0.16277,5.699202 0.0747,1.291318 0.12795,1.596252 0.31126,1.784635 0.12159,0.124963 0.31911,0.22721 0.43894,0.22721 0.15367,0 0.21787,0.08096 0.21787,0.274553 v 0.274563 h -2.0074 -2.0074 v -0.274563 z m 13.22522,-0.01967 c 0,-0.196569 0.0656,-0.254822 0.28663,-0.254822 0.16902,0 0.38707,-0.118756 0.53138,-0.289375 0.23579,-0.278804 0.24473,-0.415368 0.24473,-3.741212 0,-2.413655 -0.0413,-3.523996 -0.13736,-3.691733 -0.17593,-0.307195 -0.4563,-0.506512 -0.71873,-0.510944 -0.14069,-0.0023 -0.20665,-0.09113 -0.20665,-0.278057 V 87.4261 h 3.54248 3.54247 v 1.160441 1.160442 l -0.31003,-0.03471 c -0.2335,-0.02623 -0.34278,-0.127089 -0.4428,-0.408855 -0.23279,-0.655795 -0.62149,-0.822876 -2.02702,-0.871269 l -1.23496,-0.04251 v 1.549984 1.549984 l 0.73801,-0.0057 c 1.02448,-0.009 1.52409,-0.187297 1.74173,-0.622915 0.12971,-0.259638 0.25614,-0.355147 0.47232,-0.356764 l 0.29521,-0.0023 v 1.427565 1.427576 l -0.32474,-2.2e-5 c -0.26192,-1.2e-5 -0.32472,-0.04986 -0.32472,-0.257547 0,-0.490422 -0.39375,-0.672202 -1.54729,-0.714342 l -1.05052,-0.03833 v 1.542228 c 0,1.858852 0.0183,1.884157 1.3666,1.884157 1.32965,0 2.02279,-0.313188 2.3698,-1.070778 0.17539,-0.382895 0.58422,-0.492254 0.70907,-0.189672 0.0824,0.199678 -0.2504,1.488972 -0.50034,1.938509 l -0.1769,0.318151 -3.41917,-0.02363 -3.4192,-0.02363 V 96.467417 Z M 15.811424,86.446149 15.522825,86.239856 16.224712,85.242255 c 0.386039,-0.548674 0.77724,-0.998369 0.869338,-0.999319 0.399284,-0.0045 1.670627,0.249949 1.638786,0.32748 -0.06341,0.154405 -2.394002,2.085633 -2.514731,2.083812 -0.06495,-7.91e-4 -0.247951,-0.09464 -0.406681,-0.208079 z M 0.80836309,78.859884 H 180.64774 v 0.98842 H 0.80836309 Z M 69.253271,76.612168 c -0.944609,-0.313199 -1.475847,-1.132096 -1.303776,-2.009765 0.115958,-0.591471 0.475944,-1.005346 1.113325,-1.28 l 0.55775,-0.240337 -0.339359,-0.181136 c -0.192871,-0.102892 -0.339354,-0.274461 -0.339354,-0.397344 0,-0.198717 0.865836,-1.002067 1.080012,-1.002067 0.05106,0 -0.02304,-0.182707 -0.164716,-0.406016 -0.604701,-0.95321 -0.120932,-2.331353 1.008058,-2.871717 0.611224,-0.292542 0.817576,-0.304923 2.957714,-0.177416 1.231176,0.07338 1.276998,0.08514 1.211957,0.310531 -0.03718,0.128864 -0.06833,0.271363 -0.06922,0.316658 -7.96e-4,0.04534 -0.209122,0.08231 -0.462743,0.08231 h -0.461131 l 0.06226,0.638485 c 0.135813,1.393023 -0.929374,2.347081 -2.649005,2.372657 -0.893263,0.01334 -1.325615,0.189479 -0.977126,0.398203 0.09688,0.058 0.673556,0.255218 1.281513,0.438207 1.954947,0.58843 2.316224,0.884533 2.232851,1.830099 -0.08659,0.982077 -0.935945,1.838331 -2.164682,2.182262 -0.703652,0.196953 -1.974689,0.195144 -2.574324,-0.0034 z m 2.629165,-0.678048 c 0.958622,-0.444301 1.373907,-1.290911 0.849665,-1.732159 -0.353188,-0.297279 -1.88712,-0.753645 -2.284607,-0.67971 -0.809233,0.150528 -1.56519,1.068156 -1.425668,1.730577 0.191753,0.91038 1.628171,1.252479 2.86061,0.681292 z m 0.316138,-4.969166 c 0.71972,-0.408187 0.997699,-1.566616 0.513349,-2.139307 -0.662547,-0.78337 -1.923542,0.08978 -1.935307,1.340039 -0.0036,0.388503 0.05657,0.5251 0.32683,0.741309 0.398362,0.318694 0.615169,0.330171 1.095128,0.058 z m 4.477676,2.548421 c -0.518741,-0.0986 -0.796652,-0.420602 -0.855632,-0.991494 -0.151017,-1.461723 1.171266,-3.60406 2.651066,-4.295212 0.769187,-0.359252 2.286431,-0.39549 3.297239,-0.07881 0.09068,0.02838 0.02364,0.403857 -0.210061,1.176011 -0.457051,1.510218 -0.718772,3.021827 -0.568435,3.283082 0.09862,0.171366 0.168569,0.18325 0.481569,0.08175 0.288903,-0.09362 0.388037,-0.08661 0.469679,0.03336 0.169973,0.249892 0.06668,0.344949 -0.608037,0.559507 -0.907125,0.288448 -1.322378,0.23222 -1.458725,-0.19753 l -0.107641,-0.339272 -0.483494,0.251328 c -0.816167,0.424254 -1.9319,0.645551 -2.607529,0.517173 z m 2.04129,-0.98739 c 0.343363,-0.151715 0.70148,-0.385382 0.795806,-0.519277 0.157699,-0.223852 0.638698,-1.871335 0.82649,-2.83082 0.07695,-0.393184 0.0675,-0.406684 -0.361778,-0.516926 -0.793091,-0.203658 -1.590719,0.334253 -2.226118,1.501275 -0.666562,1.224257 -0.834633,2.314856 -0.400339,2.597775 0.29485,0.19208 0.475498,0.161394 1.365939,-0.232027 z m 55.90834,0.955121 c -0.52989,-0.117003 -0.71685,-0.288041 -0.86169,-0.788357 -0.21964,-0.758631 0.28859,-2.193681 1.15289,-3.255267 1.03499,-1.271248 2.18536,-1.700319 3.88394,-1.448652 0.44722,0.06626 0.84826,0.154756 0.89123,0.196682 0.043,0.04195 -0.10628,0.743389 -0.3316,1.558826 -0.22535,0.815436 -0.41991,1.803856 -0.43236,2.196474 l -0.0226,0.713845 0.50186,-0.0208 c 0.45027,-0.01866 0.50184,0.0045 0.50184,0.229709 0,0.209685 -0.11103,0.281778 -0.68132,0.442368 -0.93845,0.264275 -1.37396,0.207774 -1.42247,-0.184538 -0.0206,-0.166109 -0.0589,-0.302017 -0.0853,-0.302017 -0.0263,0 -0.3351,0.118168 -0.68622,0.262579 -0.56488,0.232355 -1.71613,0.525687 -1.94243,0.494944 -0.0456,-0.0057 -0.25513,-0.0493 -0.4658,-0.09577 z M 136.60303,72.541 c 0.29226,-0.13584 0.61753,-0.338808 0.72283,-0.45104 0.26129,-0.278464 0.7303,-1.71183 0.97306,-2.973784 0.0647,-0.336434 0.0452,-0.359331 -0.40198,-0.471325 -0.38263,-0.09577 -0.5468,-0.08378 -0.88312,0.06467 -0.74962,0.330838 -1.49348,1.453164 -1.87923,2.835332 -0.36945,1.323791 0.0913,1.636312 1.46844,0.996188 z M 8.5423343,73.231236 c -0.035179,-0.135908 0.1753182,-1.15749 0.4677726,-2.270171 0.5766113,-2.193806 0.5717402,-2.372058 -0.060217,-2.203496 -0.3125534,0.08333 -0.3480948,0.06739 -0.3480948,-0.156656 0,-0.209153 0.1098062,-0.279312 0.6789734,-0.433854 0.3734354,-0.101422 0.8649535,-0.195721 1.0922615,-0.209583 0.389059,-0.02374 0.415512,-0.0034 0.451209,0.343162 0.02086,0.202607 -0.18282,1.20646 -0.452613,2.230779 -0.269793,1.024318 -0.4589414,1.938972 -0.420327,2.032559 0.055919,0.135535 0.179961,0.154847 0.60956,0.09498 0.513931,-0.07169 0.537522,-0.06332 0.500489,0.176454 -0.03064,0.198412 -0.176336,0.291671 -0.688318,0.440616 -0.357199,0.103909 -0.9008407,0.191956 -1.2080931,0.195653 -0.4846052,0.0057 -0.567119,-0.02601 -0.6226033,-0.240394 z m 4.5396917,0.04432 -0.269227,-0.202765 0.914796,-3.73782 c 0.503137,-2.055805 0.897372,-3.879607 0.876076,-4.052895 -0.0397,-0.323092 -0.08248,-0.339747 -0.540568,-0.21051 -0.226569,0.06388 -0.265686,0.03415 -0.265686,-0.201827 0,-0.31987 0.41472,-0.4744 1.564592,-0.58298 0.658752,-0.06219 0.678973,-0.05619 0.678973,0.202019 0,0.146378 -0.18598,1.049952 -0.413288,2.007956 -0.227309,0.958004 -0.413289,1.806027 -0.413289,1.884496 0,0.10651 0.12982,0.08921 0.512593,-0.06818 1.315058,-0.541031 2.461401,-0.512425 2.872911,0.07169 0.385302,0.546911 0.185805,1.962276 -0.44012,3.122503 -0.325689,0.603705 -1.294757,1.543267 -1.821084,1.765638 -0.691398,0.292112 -2.869987,0.29391 -3.256679,0.0023 z m 2.98802,-0.696398 c 0.59204,-0.389678 1.252035,-1.706584 1.438177,-2.869626 0.186483,-1.165179 -0.64156,-1.397624 -1.964151,-0.551354 -0.279356,0.17875 -0.503506,0.444878 -0.619186,0.735169 -0.214094,0.537233 -0.655139,2.290513 -0.655139,2.604345 0,0.462121 1.143357,0.513861 1.800299,0.08141 z m 4.509676,0.562378 c -0.319849,-0.310598 -0.346256,-0.398135 -0.33959,-1.125695 0.01698,-1.853855 1.150148,-3.513051 2.711148,-3.9697 0.778826,-0.227844 1.463939,-0.150618 1.923176,0.216774 0.264853,0.211879 0.317906,0.344304 0.317906,0.793513 0,1.130671 -1.108645,1.988304 -2.704136,2.091886 -0.461083,0.02996 -0.877375,0.109337 -0.925086,0.176352 -0.132932,0.1868 -0.106499,0.821712 0.04538,1.090091 0.294651,0.520634 0.717359,0.532845 1.729816,0.04998 0.630794,-0.300863 0.760578,-0.330069 0.854286,-0.192227 0.208691,0.306946 0.11204,0.403348 -0.806269,0.804141 -0.764705,0.333754 -1.050576,0.401697 -1.690098,0.401697 -0.704838,0 -0.798958,-0.02838 -1.11654,-0.336774 z m 2.114537,-2.637089 c 1.004576,-0.259446 1.667262,-1.258302 1.152457,-1.7371 -0.324629,-0.301926 -0.624821,-0.29201 -1.0419,0.03437 -0.332191,0.259967 -0.871963,1.083714 -1.031433,1.574068 -0.06724,0.206756 -0.03571,0.247009 0.193277,0.246488 0.150503,-3.27e-4 0.477925,-0.05337 0.727599,-0.117839 z m 3.97413,2.936449 c 0,-0.01832 0.212225,-0.869822 0.471609,-1.892355 0.259386,-1.022532 0.471934,-2.075491 0.472327,-2.339923 l 7.96e-4,-0.480789 -0.472327,0.07022 c -0.41868,0.0623 -0.472329,0.04534 -0.472329,-0.149228 0,-0.240858 0.381789,-0.425295 1.340221,-0.647474 0.655705,-0.151997 0.903344,-0.04771 0.903344,0.380283 v 0.257806 l 0.419094,-0.264523 c 0.737156,-0.465253 1.187457,-0.550529 1.722413,-0.326167 0.256232,0.107414 0.4496,0.24875 0.429705,0.313979 -0.320621,1.051104 -0.503009,1.381557 -0.762501,1.381557 -0.232125,0 -0.273645,-0.05631 -0.273645,-0.370931 0,-0.798985 -0.747321,-0.804684 -1.289301,-0.01018 -0.337699,0.495261 -0.686837,1.621522 -0.964039,3.109861 -0.08269,0.44394 -0.207299,0.822752 -0.276921,0.841793 -0.207768,0.05687 -1.24837,0.161631 -1.24837,0.125709 z m 5.923283,-0.105832 c -0.130342,-0.146062 -0.05875,-0.54076 0.616418,-3.398547 l 0.278922,-1.180602 h -0.398211 c -0.219019,0 -0.398215,-0.02793 -0.398215,-0.06207 0,-0.171739 0.264368,-0.486985 0.408384,-0.486985 0.287885,0 0.840707,-0.520023 1.072639,-1.008986 0.259268,-0.546606 0.36235,-0.634369 0.747782,-0.636687 0.253677,-0.0011 0.273103,0.03245 0.203504,0.355249 -0.04232,0.196309 -0.108884,0.542252 -0.147936,0.768761 l -0.07099,0.41184 h 0.546462 c 0.558155,0 0.640334,0.08401 0.474785,0.485221 -0.05154,0.124918 -0.230394,0.173718 -0.636648,0.173718 -0.656414,0 -0.548664,-0.219579 -1.072432,2.185404 -0.384758,1.766691 -0.358792,1.929475 0.280583,1.758934 0.533563,-0.142318 0.576523,-0.130537 0.534207,0.146582 -0.02862,0.187444 -0.180286,0.291388 -0.628143,0.430496 -0.722947,0.224553 -1.636273,0.253668 -1.811111,0.05778 z m 4.763076,-0.141765 c -0.864184,-0.867256 -0.238823,-3.333623 1.136955,-4.484047 0.561343,-0.469403 1.437827,-0.831922 2.011361,-0.831922 0.363063,0 1.162991,0.346012 1.283307,0.555109 0.19032,0.330747 0.131034,1.120799 -0.111915,1.491358 -0.497874,0.759388 -1.571073,1.248239 -2.74035,1.248239 H 38.24046 v 0.579587 c 0,1.125096 0.50273,1.322547 1.824245,0.716457 0.421287,-0.193223 0.789202,-0.329119 0.817588,-0.302017 0.02838,0.02714 0.06994,0.148131 0.09235,0.268933 0.03271,0.176296 -0.131448,0.300954 -0.831486,0.631486 -0.758043,0.357928 -0.979072,0.411839 -1.688311,0.411839 -0.7268,0 -0.847151,-0.03121 -1.100102,-0.285022 z m 2.078432,-2.697004 c 0.623952,-0.196841 1.06153,-0.529295 1.250611,-0.95018 0.159069,-0.354073 0.154644,-0.408233 -0.05472,-0.670065 -0.324536,-0.405869 -0.643187,-0.408413 -1.132261,-0.009 -0.377317,0.308122 -1.020186,1.341113 -1.020186,1.639285 0,0.153196 0.454273,0.148447 0.956561,-0.01018 z m 44.347688,2.908815 c -0.166741,-0.155085 -0.0586,-0.803112 0.507817,-3.04331 0.770564,-3.047538 1.184699,-4.841783 1.184699,-5.132742 0,-0.208237 -0.04843,-0.228567 -0.413292,-0.173503 -0.376097,0.05676 -0.413286,0.03867 -0.413286,-0.201046 0,-0.274756 0.294595,-0.396372 1.46795,-0.606023 0.605984,-0.108319 0.775615,-0.03686 0.775615,0.326631 0,0.164164 -0.39818,1.900948 -0.884842,3.859526 -0.486662,1.95859 -0.885187,3.728401 -0.885617,3.932919 l -7.96e-4,0.371847 0.539429,-0.06875 c 0.507179,-0.06467 0.537185,-0.05427 0.50185,0.173797 -0.02906,0.187558 -0.184895,0.285441 -0.687035,0.431514 -0.663343,0.192984 -1.551046,0.260712 -1.692511,0.129146 z m 4.451293,-0.06094 c -0.144885,-0.218029 -0.06202,-0.693628 0.44084,-2.530059 0.261884,-0.956387 0.456283,-1.823089 0.432005,-1.926004 -0.04659,-0.197541 -0.07611,-0.202007 -0.591006,-0.08932 -0.274282,0.06004 -0.324724,0.03584 -0.324724,-0.156248 0,-0.26181 0.504004,-0.494402 1.422305,-0.656373 0.655996,-0.115702 0.939339,-0.05642 0.939339,0.196389 0,0.09452 -0.240586,1.104902 -0.534641,2.245183 -0.294054,1.140282 -0.499597,2.125988 -0.456761,2.190459 0.04768,0.0718 0.281029,0.09125 0.601744,0.05043 0.490556,-0.06253 0.521476,-0.05133 0.48628,0.175788 -0.02906,0.187557 -0.184894,0.28544 -0.68703,0.431513 -0.768456,0.223558 -1.603232,0.256506 -1.728351,0.06818 z m 4.361268,-0.04896 c -0.04156,-0.100743 -0.01,-0.459023 0.07033,-0.796226 0.263417,-1.106937 0.839219,-3.640219 0.839219,-3.692174 0,-0.02804 -0.163307,-0.05088 -0.362904,-0.05088 -0.512605,0 -0.416981,-0.306969 0.185885,-0.596718 0.358897,-0.172485 0.565888,-0.391691 0.862506,-0.913353 0.337731,-0.593981 0.435134,-0.686403 0.723377,-0.686403 h 0.333098 l -0.15834,0.686403 c -0.08709,0.377523 -0.160204,0.723455 -0.162483,0.768762 -0.0024,0.04534 0.261533,0.08243 0.586262,0.08243 0.61688,0 0.631331,0.01153 0.515987,0.41184 -0.06221,0.215881 -0.148391,0.247099 -0.682252,0.247099 h -0.61105 l -0.397132,1.853369 c -0.218427,1.019355 -0.365142,1.930922 -0.326029,2.025718 0.05747,0.1393 0.145735,0.152439 0.460287,0.06852 0.541168,-0.144354 0.567858,-0.137004 0.567858,0.156283 0,0.223197 -0.09737,0.285497 -0.686718,0.439293 -0.91491,0.238755 -1.658458,0.237092 -1.757901,-0.0045 z m 4.862788,-0.06558 c -0.29392,-0.235137 -0.3449,-0.364136 -0.387015,-0.979306 -0.09464,-1.38227 0.585728,-2.942792 1.595713,-3.660029 1.115311,-0.792054 2.333465,-0.897196 3.018015,-0.260532 0.31756,0.295346 0.34559,0.378666 0.29432,0.874832 -0.11239,1.087817 -1.23331,1.877938 -2.767115,1.950516 -0.959232,0.04534 -1.060148,0.152552 -0.871991,0.926097 0.204824,0.842075 0.576985,0.928504 1.758906,0.40847 0.7829,-0.344463 0.9632,-0.344248 0.9632,0.0011 0,0.350998 -1.417202,0.91488 -2.429817,0.96679 -0.753658,0.03867 -0.868942,0.01628 -1.174216,-0.227968 z m 2.539231,-2.935183 c 0.736352,-0.34938 1.052352,-1.126566 0.633212,-1.55731 -0.52751,-0.542128 -1.504052,0.167883 -1.988942,1.446085 l -0.178173,0.469686 0.532194,-0.06784 c 0.292705,-0.03731 0.74348,-0.168099 1.001709,-0.290621 z m 28.223732,3.143409 c 0,-0.01662 0.21223,-0.866747 0.47161,-1.889279 0.25939,-1.022532 0.47193,-2.075491 0.47233,-2.339923 l 0.001,-0.480789 -0.47233,0.07021 c -0.41722,0.06208 -0.47233,0.04489 -0.47233,-0.14683 0,-0.266683 0.20781,-0.374697 1.16437,-0.605231 0.83116,-0.200312 1.07919,-0.123165 1.07919,0.335643 v 0.257806 l 0.4191,-0.264523 c 0.73498,-0.463884 1.18777,-0.550393 1.71762,-0.32818 0.2536,0.106397 0.46111,0.222948 0.46112,0.259073 1e-5,0.03618 -0.11908,0.374561 -0.26464,0.752084 -0.21852,0.566766 -0.31113,0.686392 -0.53139,0.686392 -0.22428,0 -0.26674,-0.05902 -0.26674,-0.370931 0,-0.750683 -0.69392,-0.806685 -1.21203,-0.0978 -0.39399,0.539007 -0.59559,1.124011 -0.91853,2.66522 -0.14555,0.694624 -0.29695,1.293659 -0.33642,1.331175 -0.0709,0.06739 -1.31165,0.224237 -1.31165,0.16586 z m 13.61926,-0.131306 c -0.0969,-0.23482 0.0149,-0.91125 0.47102,-2.848346 l 0.38782,-1.647347 -0.33123,-0.03449 c -0.39624,-0.04116 -0.46315,-0.40605 -0.0944,-0.51489 0.41509,-0.122532 0.8945,-0.575358 1.12614,-1.063711 0.25925,-0.546606 0.36234,-0.634369 0.74778,-0.636687 0.25368,-0.0011 0.2731,0.03245 0.2035,0.355249 -0.0423,0.196309 -0.10889,0.542252 -0.14793,0.768762 l -0.071,0.411839 h 0.54646 c 0.55816,0 0.64034,0.08401 0.47479,0.485221 -0.0516,0.124918 -0.23039,0.173718 -0.63666,0.173718 -0.6564,0 -0.54865,-0.219578 -1.07241,2.185393 -0.38476,1.766702 -0.3588,1.929486 0.28057,1.758946 0.53357,-0.142319 0.57653,-0.130538 0.53422,0.146581 -0.0286,0.187445 -0.18029,0.291388 -0.62815,0.430496 -0.7861,0.24416 -1.69567,0.258994 -1.79049,0.02917 z m 4.76432,-0.112503 c -0.89513,-0.832532 -0.27633,-3.32131 1.11509,-4.484816 0.56135,-0.469402 1.43783,-0.831921 2.01137,-0.831921 0.36305,0 1.16297,0.346011 1.2833,0.555108 0.19031,0.330747 0.13103,1.1208 -0.11194,1.491358 -0.5002,0.762939 -1.57114,1.248239 -2.75454,1.248239 h -0.70785 l 0.0524,0.673694 c 0.0832,1.069885 0.50585,1.215992 1.80022,0.62235 0.42129,-0.193222 0.78921,-0.329119 0.8176,-0.302016 0.0284,0.02714 0.07,0.14813 0.0924,0.268932 0.0327,0.176296 -0.13144,0.300954 -0.83148,0.631486 -0.7512,0.354695 -0.98246,0.41184 -1.66658,0.41184 -0.69707,0 -0.83176,-0.03482 -1.09997,-0.284254 z m 2.47545,-2.862174 c 0.82596,-0.381775 1.19602,-1.267019 0.68116,-1.629358 -0.34197,-0.240665 -0.58995,-0.200119 -1.04402,0.170688 -0.37994,0.310248 -1.01259,1.339609 -1.01259,1.647528 0,0.181768 0.81604,0.06976 1.37545,-0.188858 z m 3.58402,3.051993 c 0,-0.04624 0.21563,-0.936872 0.47919,-1.979168 0.26358,-1.042297 0.46284,-2.052323 0.44281,-2.244494 -0.0341,-0.327479 -0.0634,-0.347967 -0.46673,-0.326575 -0.33742,0.01787 -0.44316,-0.02284 -0.48976,-0.188496 -0.0483,-0.171943 0.0539,-0.250231 0.54843,-0.419946 0.33431,-0.114731 0.80714,-0.242181 1.05073,-0.283236 0.45786,-0.07711 0.45011,-0.08311 0.73662,0.561689 0.006,0.01221 0.321,-0.12364 0.70122,-0.302017 0.81365,-0.381707 0.95007,-0.392256 1.44478,-0.111711 l 0.37346,0.211788 -0.25538,0.71865 c -0.21307,0.599612 -0.29938,0.71908 -0.52106,0.721296 -0.22243,0.0023 -0.26569,-0.05642 -0.26569,-0.359772 0,-0.956952 -0.97926,-0.767676 -1.51527,0.292881 -0.13467,0.266456 -0.40144,1.185124 -0.59281,2.041468 -0.19137,0.856345 -0.36658,1.571513 -0.38932,1.58923 -0.10391,0.08096 -1.28122,0.153027 -1.28122,0.07836 z m 5.90411,3.96e-4 c 0,-0.04941 0.18958,-0.777423 0.4213,-1.617791 0.25304,-0.917752 0.42988,-1.834961 0.4428,-2.29672 l 0.0215,-0.768762 -0.42818,0.03053 c -0.33656,0.02397 -0.44064,-0.01379 -0.48643,-0.176658 -0.0476,-0.169297 0.0522,-0.23846 0.54625,-0.378394 1.07354,-0.304085 1.32643,-0.325885 1.53458,-0.132301 0.10549,0.09803 0.19173,0.298342 0.19173,0.445037 0,0.146694 0.0218,0.266716 0.0484,0.266716 0.0266,0 0.3773,-0.144648 0.77924,-0.321441 0.95174,-0.418624 2.21321,-0.638214 2.58973,-0.450792 0.24571,0.122295 0.26327,0.185477 0.19148,0.688789 -0.0434,0.304775 -0.23454,1.15247 -0.42461,1.883773 -0.19005,0.731302 -0.35991,1.502608 -0.37745,1.714023 -0.0319,0.38433 -0.0319,0.384375 0.46488,0.375251 0.33952,-0.0068 0.51829,0.04308 0.56476,0.155638 0.0936,0.226883 -0.018,0.300807 -0.75824,0.502464 -0.8398,0.228759 -1.61293,0.230557 -1.70642,0.0045 -0.0387,-0.09396 0.14155,-1.051217 0.40065,-2.127355 0.51951,-2.157692 0.54934,-2.403298 0.30259,-2.491367 -0.25471,-0.09091 -1.15817,0.321204 -1.69727,0.774178 -0.44375,0.372865 -0.50054,0.488748 -0.77302,1.577358 -0.16174,0.646218 -0.33163,1.413612 -0.37752,1.705339 -0.0459,0.291716 -0.1432,0.546979 -0.21625,0.567241 -0.35813,0.09939 -1.25456,0.150313 -1.25456,0.07135 z m 8.09886,-0.08548 c -0.0407,-0.09871 0.17004,-1.11613 0.46843,-2.260821 0.29839,-1.144702 0.5148,-2.148442 0.48093,-2.230541 -0.0472,-0.114357 -0.15263,-0.124997 -0.45077,-0.04545 -0.21405,0.0571 -0.40281,0.103797 -0.41947,0.103797 -0.0166,0 -0.0303,-0.114527 -0.0303,-0.254505 0,-0.211664 0.10437,-0.283858 0.61993,-0.428868 1.39909,-0.393522 1.83127,-0.326767 1.68996,0.261029 -0.034,0.141686 -0.27742,1.094444 -0.54079,2.117259 -0.26338,1.022803 -0.4493,1.931306 -0.41315,2.0189 0.0502,0.121639 0.19259,0.143088 0.6028,0.09079 0.50471,-0.06434 0.53484,-0.05382 0.49954,0.174102 -0.0727,0.469482 -2.33193,0.878857 -2.5071,0.454308 z m 4.45504,0.0011 c -0.0788,-0.190904 0.017,-0.715247 0.4784,-2.622368 0.51024,-2.108552 0.5029,-1.92191 0.0755,-1.92191 -0.51923,0 -0.43279,-0.302978 0.17023,-0.596706 0.34694,-0.168992 0.56092,-0.395275 0.83779,-0.885901 0.30237,-0.535808 0.43352,-0.665723 0.70186,-0.695188 0.35841,-0.03935 0.36101,-0.01142 0.1081,1.161934 l -0.0769,0.356922 h 0.61781 c 0.51483,0 0.60585,0.02894 0.54613,0.173718 -0.0395,0.09554 -0.0717,0.243809 -0.0717,0.329469 0,0.115138 -0.16551,0.155752 -0.63468,0.155752 h -0.63467 l -0.38992,1.846991 c -0.21445,1.01585 -0.35672,1.927417 -0.31617,2.025719 0.0604,0.146197 0.14458,0.159833 0.46292,0.07496 0.54117,-0.144354 0.56786,-0.137005 0.56786,0.156283 0,0.223208 -0.0974,0.285497 -0.68672,0.439292 -0.90567,0.236347 -1.65858,0.236799 -1.75584,0.0011 z m 4.85412,-0.07609 c -0.33815,-0.27073 -0.34512,-0.298274 -0.34512,-1.362347 0,-1.035083 0.0209,-1.125402 0.4461,-1.925257 0.52163,-0.981308 1.12023,-1.512242 2.08252,-1.847094 1.67616,-0.583273 2.88006,0.407589 2.13829,1.759884 -0.41942,0.764624 -1.53813,1.316555 -2.67624,1.320331 -0.68362,0.0023 -0.72968,0.019 -0.80312,0.291072 -0.0987,0.36582 0.0247,0.917435 0.26087,1.166502 0.26851,0.2831 0.73022,0.235735 1.55395,-0.159381 0.61427,-0.294633 0.75051,-0.325761 0.84136,-0.192182 0.20912,0.307455 0.10538,0.42569 -0.68504,0.780905 -0.60855,0.273489 -0.99468,0.368331 -1.63276,0.401042 -0.7577,0.03889 -0.86791,0.01707 -1.18081,-0.233475 z m 2.57194,-2.956416 c 0.79791,-0.417086 1.0642,-1.237407 0.5111,-1.574475 -0.2181,-0.132912 -0.37407,-0.152099 -0.61993,-0.07632 -0.41642,0.128434 -1.01112,0.846361 -1.25697,1.517443 l -0.18975,0.517943 0.54204,-0.06909 c 0.29813,-0.03799 0.75421,-0.179993 1.01351,-0.315528 z M 0.00363096,73.179395 c 0.02194969,-0.106058 0.14557287,-0.210771 0.27471831,-0.232796 0.35062686,-0.05981 0.6570009,-0.349031 0.89626143,-0.846078 0.317364,-0.659301 1.2966669,-5.244386 1.3231442,-6.19495 0.022583,-0.810744 0.019148,-0.820785 -0.3564174,-1.043325 -0.7326818,-0.434137 -0.536894,-0.499253 1.5010014,-0.499253 1.6144364,0 1.8893167,0.02431 1.8893167,0.167488 0,0.0986 -0.1471636,0.19485 -0.3578541,0.23404 -0.7530499,0.14008 -1.0388731,0.831458 -1.7498325,4.232696 -0.6643901,3.178449 -0.6578861,3.11703 -0.35946,3.39459 0.2267616,0.210895 0.3501587,0.228952 1.2705879,0.185873 1.2380376,-0.05789 1.6853028,-0.251724 2.1177282,-0.91756 0.3406533,-0.524535 0.3542128,-0.533354 0.5984686,-0.389441 0.1355668,0.07983 0.1304927,0.181622 -0.031406,0.629801 -0.106205,0.293989 -0.3134708,0.732219 -0.4605906,0.973823 L 6.2918054,73.313595 3.127765,73.34288 C 0.16497572,73.37024 -0.03373773,73.35984 0.00363288,73.179406 Z M 59.73144,73.212863 c 0,-0.08559 0.199262,-0.246251 0.442806,-0.356934 0.308566,-0.140227 0.521309,-0.351054 0.701738,-0.695437 0.3383,-0.645687 1.360969,-5.322776 1.379715,-6.310019 0.01417,-0.746035 0.0057,-0.76918 -0.364711,-0.988408 -0.79245,-0.469086 -0.613315,-0.499038 2.984987,-0.499038 3.301,0 3.371721,0.0045 3.299564,0.216085 -0.04056,0.118846 -0.140028,0.551275 -0.221049,0.960955 -0.124956,0.631814 -0.186662,0.750196 -0.406549,0.779967 -0.210893,0.02849 -0.259234,-0.01888 -0.259234,-0.254325 0,-0.729063 -0.465134,-0.933909 -2.120488,-0.933909 H 64.02763 l -0.32749,1.400248 c -0.180122,0.77013 -0.353289,1.486734 -0.384822,1.59243 -0.05149,0.172632 0.04869,0.192035 0.983853,0.190576 1.175862,-0.0023 1.52246,-0.118518 1.867523,-0.628772 0.307053,-0.454037 0.707588,-0.490546 0.614512,-0.05597 -0.03558,0.166109 -0.158798,0.759151 -0.27382,1.317878 -0.164956,0.801291 -0.251063,1.015872 -0.40764,1.015872 -0.125283,0 -0.22417,-0.119332 -0.268073,-0.323499 -0.03833,-0.178286 -0.190726,-0.384115 -0.339486,-0.458548 -0.283368,-0.141765 -2.140297,-0.204948 -2.27783,-0.07745 -0.07946,0.07361 -0.428116,1.656426 -0.581064,2.637847 -0.07352,0.471777 -0.05473,0.530934 0.222335,0.699779 0.243401,0.148323 0.504688,0.174984 1.334645,0.136168 1.232204,-0.05767 1.670032,-0.240496 2.176802,-0.90917 0.219262,-0.289307 0.426727,-0.456049 0.524178,-0.421269 0.229705,0.08197 0.202546,0.27834 -0.145676,1.053241 -0.516409,1.149169 -0.222196,1.067466 -3.844219,1.067466 -2.65714,0 -3.169918,-0.02522 -3.169918,-0.155684 z m 59.98582,0.0023 c 0,-0.0874 0.1727,-0.213767 0.38376,-0.28068 0.74546,-0.236347 0.99183,-0.862699 1.73763,-4.417541 0.64225,-3.061276 0.62652,-3.550895 -0.1212,-3.771615 -0.13308,-0.03924 -0.22134,-0.129011 -0.19615,-0.199385 0.033,-0.09238 0.95745,-0.136088 3.32137,-0.157164 3.21976,-0.02872 3.27427,-0.02555 3.20121,0.18862 -0.0409,0.119807 -0.14062,0.553028 -0.22165,0.962708 -0.12496,0.631814 -0.18666,0.750196 -0.40655,0.779967 -0.21882,0.02962 -0.25924,-0.01741 -0.25924,-0.302017 0,-0.693345 -0.57589,-0.922139 -2.17696,-0.864836 l -0.9371,0.03347 -0.32828,1.427712 c -0.18054,0.785236 -0.33007,1.489481 -0.33227,1.564976 -0.006,0.20272 1.79846,0.184686 2.22878,-0.02227 0.18246,-0.08774 0.39881,-0.310146 0.48079,-0.494198 0.0914,-0.20505 0.23495,-0.33466 0.37087,-0.33466 0.27486,0 0.27669,-0.07971 -0.0321,1.400259 -0.2165,1.037435 -0.29254,1.235508 -0.47424,1.235508 -0.13079,0 -0.2164,-0.07937 -0.2164,-0.200504 0,-0.51247 -1.10392,-0.89351 -2.12415,-0.733202 l -0.45128,0.07089 -0.23951,1.227626 c -0.42239,2.164804 -0.40458,2.360898 0.2369,2.60802 0.70606,0.272008 0.29847,0.376076 -1.59407,0.407011 -1.55115,0.02533 -1.85009,0.0045 -1.85009,-0.12875 z M 50.449471,70.852655 c -0.52817,-0.223084 -0.991196,-0.912551 -0.991196,-1.475947 0,-0.872434 0.829153,-1.652627 1.753115,-1.649586 1.105023,0.0034 1.788118,0.631429 1.788914,1.644091 0.0012,1.286772 -1.267495,2.023491 -2.550833,1.481442 z m 60.102129,0.0519 c -0.20269,-0.08209 -0.5197,-0.333517 -0.70448,-0.558828 -0.27396,-0.334071 -0.33431,-0.514867 -0.32709,-0.979928 0.0157,-1.008987 0.69028,-1.629562 1.7714,-1.629562 0.53571,0 0.71412,0.05416 1.07987,0.327774 0.8151,0.609777 0.9418,1.632117 0.29136,2.351072 -0.54671,0.60427 -1.36101,0.793072 -2.11106,0.489472 z M 39.954791,67.000919 c -0.232265,-0.238698 -0.248985,-0.213687 1.092948,-1.634785 l 0.452733,-0.479443 0.672596,0.13999 c 0.36993,0.077 0.672601,0.173175 0.672601,0.213721 0,0.07406 -2.528319,1.97797 -2.626713,1.97797 -0.02893,0 -0.147794,-0.0978 -0.264165,-0.217453 z m 60.074769,-1.02e-4 -0.261975,-0.197304 0.891375,-0.945702 c 0.49026,-0.520136 0.93646,-0.945702 0.99157,-0.945702 0.288,0 1.30021,0.269939 1.27238,0.339317 -0.0293,0.07304 -2.22923,1.718433 -2.51271,1.879329 -0.0653,0.03709 -0.23656,-0.02137 -0.38064,-0.129938 z m 78.49701,7.92e-4 -0.28494,-0.199893 0.92236,-0.944889 c 0.5073,-0.519695 0.96491,-0.944899 1.01691,-0.944899 0.23366,0 1.29283,0.263924 1.28778,0.320876 -0.006,0.05936 -2.23505,1.732691 -2.5248,1.894695 -0.0728,0.0407 -0.26059,-0.01594 -0.41731,-0.12589 z M 10.006484,66.438201 c -0.4798662,-0.446302 -0.011554,-1.306446 0.711307,-1.306446 0.502716,0 0.765213,0.245324 0.765213,0.715134 0,0.732908 -0.925679,1.103624 -1.47652,0.591312 z m 79.688342,0.07824 c -0.290217,-0.204891 -0.273016,-0.883617 0.02953,-1.164999 0.487045,-0.452973 1.416987,-0.157311 1.416987,0.450521 0,0.658283 -0.897915,1.101793 -1.446507,0.714478 z m 78.423884,-0.07824 c -0.48826,-0.454104 -0.009,-1.306446 0.73388,-1.306446 0.74177,0 1.05958,0.769519 0.52365,1.267969 -0.36378,0.338323 -0.91693,0.355249 -1.25753,0.03844 z M 64.666826,63.298976 c -0.180389,-0.187003 -0.137357,-0.254132 0.716843,-1.118244 l 0.908752,-0.91929 0.675264,0.140544 c 0.371397,0.07734 0.672592,0.169749 0.669321,0.205445 -0.0096,0.104475 -2.380852,1.793838 -2.588883,1.844425 -0.10417,0.02533 -0.275751,-0.04342 -0.381297,-0.15288 z" />
    <path
       inkscape:connector-curvature="0"
       style="fill:#e2011c;fill-opacity:1;stroke:none;stroke-width:1.13068187"
       id="path10"
       d="m 103.92423,57.108165 0.2755,-0.66258 c 0.46683,-1.196974 0.951,-2.110497 1.64975,-3.112711 0.74021,-1.061665 2.36953,-2.625522 3.04729,-2.924847 0.833,-0.367879 1.86855,-0.49741 3.14912,-0.393885 1.09966,0.08887 4.47835,0.602733 5.84174,0.888411 1.03765,0.217441 2.55702,0.238235 3.27196,0.04478 1.37753,-0.372707 2.19363,-1.093155 2.58094,-2.27846 0.29709,-0.909283 0.29427,-1.735687 -0.008,-2.286804 -0.40578,-0.740257 -0.33669,-0.93279 0.64945,-1.809826 0.48709,-0.433187 0.88627,-0.83372 0.88707,-0.890073 0.005,-0.293208 -0.67072,-1.470553 -0.84446,-1.47321 -0.10651,-0.0011 -0.31678,-0.09577 -0.46738,-0.209301 l -0.27383,-0.206361 0.58547,-0.278362 c 0.79941,-0.38009 1.39235,-0.971166 1.39235,-1.38798 0,-0.180061 -0.16843,-0.621491 -0.37429,-0.980957 -0.39506,-0.689818 -0.50073,-1.348926 -0.27831,-1.735721 0.14696,-0.255557 0.40039,-0.363028 1.64527,-0.697699 1.04609,-0.281223 1.4243,-0.566302 1.57343,-1.186006 0.12758,-0.530143 0.0649,-0.870885 -0.2774,-1.507832 -0.27869,-0.51861 -2.09366,-3.104694 -2.62234,-3.736485 -0.71044,-0.848996 -1.57591,-2.315773 -1.83187,-3.104672 -0.25231,-0.777615 -0.25401,-0.821689 -0.0699,-1.826899 0.38918,-2.124947 0.16162,-3.886708 -0.94579,-7.321867 -0.82301,-2.552989 -1.04403,-3.172761 -1.30174,-3.650395 -0.46595,-0.863536 -0.40369,-1.06569 0.55224,-1.793555 0.45756,-0.348397 0.88266,-0.721658 0.94465,-0.829469 0.28867,-0.501966 -0.0339,-1.469174 -0.58089,-1.7416 -0.34715,-0.1729154 -0.54038,-0.05416 -0.89282,0.54846 -0.26705,0.456626 -0.37173,0.5431 -0.65752,0.5431 -0.4652,0 -0.54677,-0.181497 -0.24968,-0.555481 0.34639,-0.436036 0.31896,-0.505947 -0.22517,-0.5738779 -0.40728,-0.050881 -0.62258,-0.1988643 -1.50554,-1.0351732 -1.1838,-1.1212294 -1.97904,-1.6379284 -3.56434,-2.3158514 -0.72673,-0.3107679 -0.97983,-0.4578696 -0.71322,-0.4144853 0.22731,0.036973 1.031,0.096108 1.78599,0.13134 2.19077,0.1023267 2.72328,-0.1669 3.23383,-1.6347286 0.34665,-0.996583 0.5129,-1.4574942 -0.28252,-2.1532932 L 116.10396,0 h 65.50664 v 57.108165 z" />
    <path
       inkscape:connector-curvature="0"
       style="fill:#003189;fill-opacity:1;stroke:none;stroke-width:1.13068187"
       id="path12"
       d="m 48.063361,57.108165 c -0.475416,-0.04636 -0.88764,-0.0666 -0.916049,-0.09305 -0.05,-0.04647 0.486961,-0.367574 2.946064,-1.761433 0.78876,-0.447083 1.113266,-0.686731 1.003696,-0.741219 -0.08906,-0.04432 -0.777556,-0.114504 -1.529996,-0.156022 -1.117867,-0.06174 -1.441807,-0.04398 -1.771231,0.09679 -0.221734,0.09475 -1.106639,0.343987 -1.96645,0.553853 -2.132521,0.520487 -2.850142,0.877828 -3.534877,1.760178 L 42.038667,57.10812 0,57.108165 V 0 H 83.406132 L 81.790077,0.98112661 C 80.900387,1.3919486 79.866463,1.9625133 79.492467,2.249062 78.223813,3.2210866 76.515466,5.4323386 76.088889,6.6545831 75.932102,7.1038143 75.78976,7.2722068 75.308686,7.57757 74.574587,8.0435467 73.695234,8.9321722 72.967109,9.9438385 71.978417,11.317538 70.093923,14.41339 69.723644,15.2722 c -0.574413,1.332293 -0.522232,2.346786 0.3255,6.328279 0.373216,1.752851 0.777051,3.533166 0.897414,3.956267 0.12036,0.423102 0.252098,1.14018 0.292745,1.593493 0.07258,0.809399 0.129143,0.98462 0.638619,1.978139 0.139479,0.271986 0.25345,0.580662 0.253272,0.685917 -2.39e-4,0.105267 0.105945,0.25316 0.235834,0.328656 0.134712,0.07824 0.236162,0.25628 0.236162,0.414315 0,0.190385 0.268936,0.551705 0.859652,1.154947 1.351412,1.380099 2.328562,2.673847 2.328562,3.083019 0,0.33605 -0.530016,0.422897 -1.383961,0.226769 -0.99808,-0.229223 -1.81453,-0.724337 -3.073634,-1.863918 -0.535797,-0.484938 -0.974173,-0.81097 -0.974173,-0.724518 0,0.0865 0.367357,0.537334 0.816353,1.001931 0.892969,0.924027 1.033025,1.176136 0.839927,1.511937 -0.168926,0.293762 -0.579941,0.37931 -1.135959,0.236425 -0.64164,-0.164876 -1.017618,0.0649 -0.911794,0.557393 0.06492,0.302095 0.0471,0.337644 -0.136379,0.27211 -0.362725,-0.129543 -1.156472,-0.277922 -1.870234,-0.34963 -0.655664,-0.06581 -0.704189,-0.0926 -1.101099,-0.606769 -0.300781,-0.389644 -0.534808,-0.569118 -0.849173,-0.651216 -1.171691,-0.306019 -4.086062,-0.777729 -6.042858,-0.978074 -3.439535,-0.352151 -4.268004,-0.379796 -5.915839,-0.197417 -1.265434,0.140046 -1.609536,0.222235 -2.302598,0.549975 -1.22689,0.580198 -3.353596,2.398199 -3.353596,2.86681 0,0.21985 0.46841,0.142285 1.003697,-0.166188 1.624429,-0.936125 7.188744,-2.257327 9.918884,-2.355154 1.352886,-0.04851 1.279546,0.01176 -0.343684,0.282422 -0.44881,0.07485 -1.511549,0.328056 -2.361641,0.562729 -0.850093,0.234673 -2.316109,0.596288 -3.257813,0.803576 -0.941705,0.207299 -2.00444,0.474536 -2.361641,0.593868 l -0.649449,0.216978 1.003697,0.01018 c 5.114192,0.05201 10.944002,1.562026 13.316539,3.449281 1.020846,0.812033 1.394683,0.910583 2.896306,0.763504 2.057903,-0.201555 4.721545,-1.115316 5.889667,-2.020438 0.506913,-0.392788 0.92391,-0.548946 0.923174,-0.345729 -0.0012,0.358958 -0.672803,2.288659 -0.963013,2.767412 -0.323535,0.533716 -0.34191,0.610546 -0.173445,0.725197 0.103639,0.07055 0.158683,0.15591 0.122326,0.189751 -0.03637,0.03381 0.04418,0.09407 0.178956,0.133906 0.387533,0.114471 0.290011,0.225097 -0.328481,0.372628 -0.602954,0.143823 -1.079602,0.395637 -1.079602,0.57035 0,0.05699 0.08284,0.103683 0.184094,0.103683 0.303276,0 0.07695,0.197237 -0.319252,0.278227 -0.271281,0.0554 -0.325488,0.100744 -0.205288,0.171615 0.117828,0.06942 0.122209,0.09679 0.01572,0.09792 -0.08118,8.03e-4 -0.147601,0.113249 -0.147601,0.249598 0,0.169772 -0.111667,0.293921 -0.354249,0.393851 -0.591221,0.24356 -0.425486,0.375092 0.383767,0.304571 0.405909,-0.03539 0.658308,-0.03505 0.56089,8.03e-4 -0.09742,0.03573 -0.761629,0.315438 -1.476023,0.621412 -0.714398,0.305985 -1.644293,0.669205 -2.066435,0.807171 -0.477867,0.15617 -0.783086,0.320639 -0.808744,0.43581 -0.04121,0.185002 0.180656,0.178863 0.738731,-0.02047 0.103457,-0.03697 0.186797,-0.02476 0.185218,0.02702 -0.0016,0.05179 -1.231436,0.712341 -2.733011,1.467874 -1.50157,0.755544 -2.906634,1.534426 -3.122358,1.73087 -0.215724,0.196434 -0.491745,0.35716 -0.613373,0.35716 -0.12239,0 -0.282342,0.125008 -0.358181,0.279912 -0.229359,0.468486 -0.18191,0.525473 0.364811,0.438128 0.812258,-0.12978 1.184535,-0.122645 1.238461,0.02374 0.02917,0.07926 -0.04744,0.137366 -0.180946,0.137366 -0.127349,0 -0.295078,0.07123 -0.372727,0.15833 -0.07766,0.08706 -0.2827,0.173616 -0.455671,0.192318 -0.201244,0.02171 -0.400102,0.159946 -0.552249,0.383764 -0.130766,0.192386 -0.344031,0.375194 -0.473923,0.406243 -0.12989,0.03109 0.05609,0.03618 0.413288,0.01153 5.311314,-0.367619 6.300853,-0.55054 8.442862,-1.560748 1.827384,-0.861817 3.724364,-2.142982 5.073827,-3.426701 0.38764,-0.36875 0.746314,-0.670461 0.797054,-0.670461 0.183491,0 0.08394,0.616437 -0.186984,1.15792 -0.468896,0.937132 -1.452724,1.800396 -3.474949,3.049088 -1.020087,0.629891 -2.120385,1.223115 -2.445114,1.318284 -1.014573,0.297336 -2.652466,0.614074 -4.369546,0.844981 -5.593934,0.752266 -7.734641,1.322853 -9.855141,2.626801 -0.354893,0.218233 -0.727433,0.383832 -0.827872,0.367991 -0.100438,-0.01583 -0.368003,0.118665 -0.594596,0.298885 -0.637313,0.506896 -0.175586,0.421145 1.14622,-0.212862 1.354533,-0.649713 1.98957,-0.752096 0.921509,-0.148572 -1.309627,0.740031 -2.307942,1.203769 -3.285318,1.203769 H 48.06336 Z m -6.948702,-6.37042 c 0.212305,-0.08254 0.914663,-0.448531 1.560792,-0.813277 0.64613,-0.364736 1.413895,-0.764058 1.706147,-0.887393 0.292256,-0.123324 1.115877,-0.469561 1.83027,-0.769429 1.497357,-0.628512 3.694778,-1.221544 3.821151,-1.03125 0.04439,0.06682 0.371803,0.140476 0.727584,0.16361 0.49797,0.03234 0.585717,0.06219 0.381189,0.129327 -0.146126,0.04794 -0.265686,0.130944 -0.265686,0.184346 0,0.198808 1.105091,0.139165 1.570361,-0.0848 0.182408,-0.08774 0.594477,-0.188586 0.91571,-0.223988 0.399401,-0.04398 0.584062,-0.114719 0.584062,-0.223581 0,-0.124262 0.101422,-0.143246 0.462094,-0.0865 0.496285,0.07802 1.563726,-0.109789 4.438308,-0.780849 1.946762,-0.454478 3.421201,-0.911861 4.716189,-1.463023 l 0.937569,-0.399029 -0.937569,-0.558817 c -2.28516,-1.362019 -4.579806,-2.198396 -9.616591,-3.505159 -0.876758,-0.227471 -1.647243,-0.46272 -1.712188,-0.522771 -0.07832,-0.07248 -0.03857,-0.08265 0.118082,-0.03041 0.502897,0.167838 0.885614,0.200006 0.885614,0.0744 0,-0.162875 -0.380285,-0.29417 -1.127422,-0.389249 -0.683343,-0.08695 -1.124439,-0.2767 -0.649712,-0.279459 0.73474,-0.0045 -0.528349,-0.437585 -1.942447,-0.666368 -1.046895,-0.169387 -1.1072,-0.205637 -0.66993,-0.402726 0.381066,-0.171762 0.79093,-0.821734 0.683096,-1.083261 -0.09154,-0.222009 -0.205711,-0.199113 -0.771949,0.154824 -1.091702,0.682367 -2.093046,1.799786 -2.655774,2.963653 -0.321003,0.663914 -0.209858,0.724824 1.44236,0.790528 1.352933,0.05382 1.374389,0.05868 1.02754,0.231982 -0.194833,0.09735 -0.585657,0.210058 -0.868487,0.250412 -0.960609,0.137061 -1.494184,0.561259 -1.017973,0.809285 0.141421,0.07361 0.0853,0.13575 -0.261956,0.289873 -0.389248,0.172746 -0.416619,0.209312 -0.229598,0.306732 0.116789,0.06083 0.45637,0.09249 0.754628,0.07044 0.414513,-0.03064 0.603798,0.01131 0.803343,0.176274 l 0.26106,0.216412 -0.523851,0.309174 c -0.288117,0.170054 -0.614007,0.46774 -0.724202,0.661539 -0.110196,0.193788 -0.505893,0.654846 -0.879329,1.024579 -0.373435,0.369733 -0.678972,0.752152 -0.678972,0.84982 0,0.09769 -0.544651,0.58307 -1.210337,1.078648 -1.790228,1.33278 -2.568283,2.065315 -2.568283,2.418031 0,0.186631 -0.101162,0.354695 -0.27864,0.462924 -0.558879,0.34081 -0.850553,0.734536 -0.544142,0.734536 0.06703,0 0.29558,-0.0675 0.507889,-0.150109 z m 13.813147,-1.284116 c 0.442445,-0.05506 0.954787,-0.182684 1.13853,-0.283699 l 0.334086,-0.183668 -0.569801,-0.264263 -0.5698,-0.264252 -0.56873,0.214411 c -0.312801,0.117919 -0.745952,0.276814 -0.962552,0.35309 -0.871181,0.306776 -0.984862,0.719159 -0.167068,0.606023 0.30849,-0.04274 0.922891,-0.122611 1.365335,-0.177642 z M 34.935039,44.456264 c 2.631434,-2.560633 4.48837,-4.079704 6.845418,-5.599906 0.800998,-0.516619 1.365252,-0.815289 1.393135,-0.737442 0.07651,0.213631 0.419628,0.150732 0.978245,-0.179303 0.64191,-0.379254 0.963045,-0.763086 1.764317,-2.108778 0.831272,-1.396076 1.145365,-1.744937 2.345331,-2.604945 0.561284,-0.402262 1.387807,-1.002847 1.836719,-1.334623 0.646889,-0.478097 0.802276,-0.553672 0.749068,-0.364305 -0.04121,0.146672 -0.01278,0.238924 0.0737,0.238924 0.268281,0 1.532277,-0.50209 1.576777,-0.626341 0.06956,-0.194217 -1.214668,-0.394778 -2.164602,-0.33804 -0.72928,0.04353 -0.987577,0.122294 -1.892498,0.576942 -2.126475,1.068358 -3.662576,2.220738 -6.595777,4.948135 -2.110859,1.962762 -3.773724,3.278797 -4.614196,3.651809 -0.273717,0.12148 -0.479857,0.376121 -0.811901,1.002914 -0.645349,1.218231 -1.797542,2.966537 -2.891279,4.387148 -1.033677,1.342594 -1.255542,1.807033 -0.452239,0.946697 0.276017,-0.295616 1.112924,-1.132118 1.85979,-1.858886 z M 61.267322,56.47911 c 3.160335,-0.611303 3.509198,-0.656824 5.726977,-0.7472 2.490313,-0.101422 2.807683,-0.161699 4.305798,-0.816974 0.479988,-0.209956 0.668231,-0.248128 0.734936,-0.149058 0.116108,0.172452 0.928633,-0.239388 2.51651,-1.275545 0.649452,-0.423791 1.56785,-0.965376 2.040884,-1.203509 0.712815,-0.358856 0.930887,-0.420614 1.273767,-0.360755 0.366097,0.06388 0.474503,0.02239 0.942014,-0.360563 1.295809,-1.061552 2.402234,-1.552268 3.507229,-1.555525 0.328565,-7.91e-4 0.442802,0.04421 0.442802,0.175301 0,0.111825 0.06497,0.1534 0.177127,0.11334 0.329205,-0.117569 0.180075,0.01696 -0.666519,0.601002 -0.980198,0.676273 -0.883847,0.879343 0.11265,0.237432 0.964733,-0.621456 0.967152,-0.622384 0.967152,-0.371056 0,0.143201 -0.363139,0.502758 -1.033216,1.023019 -1.524559,1.183699 -2.604078,2.162655 -4.247543,3.851849 l -1.470173,1.467297 H 57.901982 l 3.365336,-0.629055 z m 0.02953,-22.371254 c 0.113657,-0.02759 0.299634,-0.02759 0.413288,0 0.113653,0.0277 0.02066,0.05032 -0.206642,0.05032 -0.22731,0 -0.320299,-0.02261 -0.206646,-0.05032 z" />
    <path
       inkscape:connector-curvature="0"
       style="fill:#7f7f7f;stroke:none;stroke-width:1.13068187"
       id="path14"
       d="m 116.38008,29.928652 c -0.5157,-0.07259 -0.24957,-0.250796 0.37444,-0.250796 0.62601,0 0.95599,-0.223649 0.95599,-0.64796 0,-0.199498 -0.0467,-0.232242 -0.24666,-0.173164 -0.17255,0.05099 -0.29541,0.0079 -0.40892,-0.142737 -0.10606,-0.140861 -0.36235,-0.240304 -0.73941,-0.286854 -0.67354,-0.0831 -1.76432,-0.688382 -1.56873,-0.87041 0.0668,-0.06219 0.41356,-0.135569 0.77059,-0.163124 0.61532,-0.04749 0.65602,-0.06942 0.78087,-0.421518 0.0934,-0.263517 0.22338,-0.391487 0.44726,-0.44048 0.17355,-0.03799 0.44839,-0.182967 0.61076,-0.322176 0.16235,-0.139221 0.69373,-0.495058 1.18081,-0.790765 0.81889,-0.497127 1.32623,-1.027055 1.14484,-1.195844 -0.19107,-0.177833 -1.96414,-0.371372 -2.79798,-0.305408 -0.9687,0.07666 -2.63777,0.404106 -3.33582,0.654495 -0.71652,0.257016 -0.50707,0.03324 0.4774,-0.510118 1.32897,-0.733451 3.88722,-1.417299 5.30207,-1.417299 0.54889,0 2.38558,0.40371 2.60435,0.572453 0.42854,0.330521 -0.0389,1.49077 -0.83377,2.069634 l -0.33194,0.241717 0.27291,0.270833 0.27287,0.270821 -0.27877,0.210453 c -0.1533,0.11576 -0.36333,0.210466 -0.4667,0.210466 -0.10334,0 -0.3593,0.154575 -0.56875,0.343512 -0.32237,0.290778 -0.364,0.384669 -0.2713,0.61162 0.0718,0.175742 0.0648,0.345943 -0.0203,0.49404 -0.0795,0.138305 -0.0995,0.452782 -0.0513,0.810902 0.0981,0.731088 -0.0435,0.993011 -0.61718,1.141288 -0.42541,0.109902 -1.98301,0.131295 -2.65747,0.03641 z" />
  </g>
  <g
     transform="scale(1.0369194,0.96439512)"
     style="font-style:normal;font-weight:normal;font-size:14.94835186px;line-height:125%;font-family:sans-serif;letter-spacing:0px;word-spacing:0px;fill:#373c42;fill-opacity:1;stroke:none;stroke-width:1px;stroke-linecap:butt;stroke-linejoin:miter;stroke-opacity:1"
     id="text3345">
    <path
       d="m 228.82995,64.129326 h 6.2129 v -34.38121 h -6.2129 v 12.285677 c -2.24226,-2.242253 -4.8115,-3.363379 -7.80118,-3.363379 -6.44647,0 -11.6784,5.32535 -11.6784,13.079808 0,7.614317 5.51221,13.033094 11.81855,13.033094 3.12981,0 5.46549,-1.121126 7.66103,-3.269952 z m -6.53991,-19.759853 c 3.92394,0 6.82019,2.942957 6.82019,7.287322 0,4.531219 -2.98967,7.427462 -6.82019,7.427462 -3.87723,0 -6.68004,-3.129811 -6.68004,-7.380749 0,-4.064083 2.56925,-7.334035 6.68004,-7.334035 z"
       style="font-style:normal;font-variant:normal;font-weight:bold;font-stretch:normal;font-size:46.71360016px;font-family:'Century Gothic Std';-inkscape-font-specification:'Century Gothic Std Bold';fill:#373c42;fill-opacity:1"
       id="path3359"
       inkscape:connector-curvature="0" />
    <path
       d="m 259.66822,64.129326 h 6.21291 V 39.324404 h -6.21291 v 2.709389 c -2.24225,-2.242253 -4.8115,-3.363379 -7.80117,-3.363379 -6.44648,0 -11.6784,5.32535 -11.6784,13.079808 0,7.614317 5.51221,13.033094 11.81854,13.033094 3.12981,0 5.46549,-1.121126 7.66103,-3.269952 z m -6.5399,-19.759853 c 3.92394,0 6.82018,2.942957 6.82018,7.287322 0,4.531219 -2.98967,7.427462 -6.82018,7.427462 -3.87723,0 -6.68005,-3.129811 -6.68005,-7.380749 0,-4.064083 2.56925,-7.334035 6.68005,-7.334035 z"
       style="font-style:normal;font-variant:normal;font-weight:bold;font-stretch:normal;font-size:46.71360016px;font-family:'Century Gothic Std';-inkscape-font-specification:'Century Gothic Std Bold';fill:#373c42;fill-opacity:1"
       id="path3361"
       inkscape:connector-curvature="0" />
    <path
       d="m 272.89547,39.324404 h -3.17652 v 5.325351 h 3.17652 v 19.479571 h 6.21291 V 44.649755 h 3.69037 v -5.325351 h -3.69037 v -9.155865 h -6.21291 z"
       style="font-style:normal;font-variant:normal;font-weight:bold;font-stretch:normal;font-size:46.71360016px;font-family:'Century Gothic Std';-inkscape-font-specification:'Century Gothic Std Bold';fill:#373c42;fill-opacity:1"
       id="path3363"
       inkscape:connector-curvature="0" />
    <path
       d="m 304.55707,64.129326 h 6.21291 V 39.324404 h -6.21291 v 2.709389 c -2.24225,-2.242253 -4.8115,-3.363379 -7.80117,-3.363379 -6.44647,0 -11.6784,5.32535 -11.6784,13.079808 0,7.614317 5.51221,13.033094 11.81854,13.033094 3.12981,0 5.46549,-1.121126 7.66103,-3.269952 z m -6.5399,-19.759853 c 3.92394,0 6.82018,2.942957 6.82018,7.287322 0,4.531219 -2.98967,7.427462 -6.82018,7.427462 -3.87723,0 -6.68005,-3.129811 -6.68005,-7.380749 0,-4.064083 2.56925,-7.334035 6.68005,-7.334035 z"
       style="font-style:normal;font-variant:normal;font-weight:bold;font-stretch:normal;font-size:46.71360016px;font-family:'Century Gothic Std';-inkscape-font-specification:'Century Gothic Std Bold';fill:#373c42;fill-opacity:1"
       id="path3365"
       inkscape:connector-curvature="0" />
    <path
       d="m 320.44699,57.636135 c -1.96197,0 -3.59694,1.541549 -3.59694,3.550234 0,1.961971 1.63497,3.596947 3.59694,3.596947 2.00869,0 3.55024,-1.634976 3.55024,-3.596947 0,-1.961971 -1.58827,-3.550234 -3.55024,-3.550234 z"
       style="font-style:normal;font-variant:normal;font-weight:bold;font-stretch:normal;font-size:46.71360016px;font-family:'Century Gothic Std';-inkscape-font-specification:'Century Gothic Std Bold';fill:#373c42;fill-opacity:1"
       id="path3367"
       inkscape:connector-curvature="0" />
    <path
       d="m 354.65522,39.324404 h -6.21291 v 2.709389 c -2.33568,-2.195539 -4.76479,-3.363379 -7.84788,-3.363379 -6.30634,0 -11.58498,5.045069 -11.58498,12.706099 0,7.427462 5.23193,12.752813 11.91197,12.752813 3.22324,0 5.46549,-1.074413 7.52089,-3.083098 0,2.33568 -0.0467,4.01737 -1.54155,5.418778 -1.12112,1.027699 -2.98967,1.634976 -5.27863,1.634976 -2.61597,0 -4.48451,-0.653991 -5.74578,-2.148826 h -6.8669 c 1.68169,5.18521 6.02606,7.847885 12.84624,7.847885 3.78381,0 6.77348,-0.887558 9.01573,-2.756102 2.84953,-2.429108 3.7838,-5.652346 3.7838,-10.463847 z m -12.65938,5.045069 c 4.11079,0 6.77347,3.083098 6.77347,7.100467 0,4.204224 -2.84953,6.960327 -6.68005,6.960327 -3.87723,0 -6.82018,-2.896244 -6.82018,-7.00704 0,-3.830516 2.61596,-7.053754 6.72676,-7.053754 z"
       style="font-style:normal;font-variant:normal;font-weight:bold;font-stretch:normal;font-size:46.71360016px;font-family:'Century Gothic Std';-inkscape-font-specification:'Century Gothic Std Bold';fill:#373c42;fill-opacity:1"
       id="path3369"
       inkscape:connector-curvature="0" />
    <path
       d="m 372.60054,38.670414 c -6.77347,0 -12.84624,5.558918 -12.84624,13.079808 0,7.287321 5.69906,13.033094 12.89295,13.033094 7.56761,0 13.12652,-5.885913 13.12652,-13.079808 0,-7.334035 -5.93262,-13.033094 -13.17323,-13.033094 z m 0.0934,5.885913 c 4.06408,0 6.82018,2.989671 6.82018,7.193895 0,4.344365 -2.98967,7.147181 -6.82018,7.147181 -4.01737,0 -6.68005,-2.989671 -6.68005,-7.193895 0,-4.110797 2.80282,-7.147181 6.68005,-7.147181 z"
       style="font-style:normal;font-variant:normal;font-weight:bold;font-stretch:normal;font-size:46.71360016px;font-family:'Century Gothic Std';-inkscape-font-specification:'Century Gothic Std Bold';fill:#373c42;fill-opacity:1"
       id="path3371"
       inkscape:connector-curvature="0" />
    <path
       d="m 390.80352,50.675809 c 0,2.055398 -0.0934,3.223238 0.23357,5.231923 0.98099,5.792487 4.67136,8.828871 10.6507,8.828871 3.45681,0 6.02606,-0.934272 7.98803,-3.129812 2.61596,-2.896243 2.89624,-6.259622 2.89624,-10.837555 V 39.324404 h -6.21291 v 13.219949 c 0,4.204224 -1.35469,6.49319 -4.67136,6.49319 -3.26995,0 -4.67136,-2.33568 -4.67136,-6.773472 V 39.324404 h -6.21291 z"
       style="font-style:normal;font-variant:normal;font-weight:bold;font-stretch:normal;font-size:46.71360016px;font-family:'Century Gothic Std';-inkscape-font-specification:'Century Gothic Std Bold';fill:#373c42;fill-opacity:1"
       id="path3373"
       inkscape:connector-curvature="0" />
    <path
       d="m 426.79927,64.129326 h 4.01737 l 10.55728,-24.804922 h -6.30634 l -6.25962,14.621357 -6.25962,-14.621357 h -6.35305 z"
       style="font-style:normal;font-variant:normal;font-weight:bold;font-stretch:normal;font-size:46.71360016px;font-family:'Century Gothic Std';-inkscape-font-specification:'Century Gothic Std Bold';fill:#373c42;fill-opacity:1"
       id="path3375"
       inkscape:connector-curvature="0" />
    <path
       d="m 446.5825,59.212944 q 1.18103,0 1.97754,0.823975 0.82398,0.796508 0.82398,1.950073 0,1.153564 -0.82398,1.977539 -0.82397,0.796509 -1.97754,0.796509 -1.15356,0 -1.97753,-0.796509 -0.79651,-0.823975 -0.79651,-1.977539 0,-1.153565 0.79651,-1.950073 0.82397,-0.823975 1.97753,-0.823975 z"
       style="font-style:italic;font-variant:normal;font-weight:normal;font-stretch:normal;font-size:56.25px;font-family:'Times New Roman';-inkscape-font-specification:'Times New Roman, Italic'"
       id="path3377"
       inkscape:connector-curvature="0" />
    <path
       d="m 472.64757,39.931938 -0.49439,1.812744 h -4.01001 l -3.02124,12.002564 q -2.005,7.937622 -4.03747,12.277221 -2.88391,6.124878 -6.20728,8.459473 -2.52685,1.785278 -5.05371,1.785278 -1.64795,0 -2.80151,-0.988769 -0.85144,-0.686646 -0.85144,-1.785278 0,-0.878907 0.71411,-1.538086 0.68664,-0.631714 1.70288,-0.631714 0.74158,0 1.26343,0.466919 0.49438,0.466919 0.49438,1.071167 0,0.604248 -0.57678,1.126098 -0.43945,0.384522 -0.43945,0.576783 0,0.247192 0.19226,0.384521 0.24719,0.192261 0.76904,0.192261 1.18103,0 2.49939,-0.741577 1.29089,-0.741577 2.30713,-2.224732 1.01623,-1.455688 1.92261,-4.229736 0.38452,-1.153565 2.05993,-7.608032 l 4.77906,-18.594361 h -4.77906 l 0.38452,-1.812744 q 2.27967,0 3.18604,-0.302124 0.90637,-0.32959 1.64795,-1.208496 0.76904,-0.906372 1.97754,-3.35083 1.62048,-3.295898 3.10364,-5.108643 2.03247,-2.444458 4.2572,-3.652954 2.25219,-1.235962 4.22973,-1.235962 2.08741,0 3.35083,1.071167 1.26343,1.043702 1.26343,2.279663 0,0.961304 -0.63171,1.620484 -0.63172,0.65918 -1.62049,0.65918 -0.85144,0 -1.40075,-0.494385 -0.52185,-0.494385 -0.52185,-1.18103 0,-0.439454 0.35705,-1.071167 0.35706,-0.65918 0.35706,-0.878907 0,-0.384521 -0.24719,-0.576782 -0.35706,-0.274658 -1.04371,-0.274658 -1.73034,0 -3.10363,1.098633 -1.84021,1.455688 -3.2959,4.559326 -0.74158,1.620483 -2.71912,8.047485 z"
       style="font-style:italic;font-variant:normal;font-weight:normal;font-stretch:normal;font-size:56.25px;font-family:'Times New Roman';-inkscape-font-specification:'Times New Roman, Italic'"
       id="path3379"
       inkscape:connector-curvature="0" />
    <path
       d="m 474.51524,40.810844 9.47571,-1.538086 -3.95508,13.348389 q 4.80652,-8.21228 8.73413,-11.480713 2.22474,-1.867676 3.62549,-1.867676 0.90637,0 1.42823,0.549317 0.52185,0.52185 0.52185,1.538086 0,1.812744 -0.93384,3.460693 -0.65918,1.235962 -1.89514,1.235962 -0.63172,0 -1.09864,-0.411987 -0.43945,-0.411988 -0.54931,-1.263428 -0.0549,-0.521851 -0.2472,-0.686645 -0.21972,-0.219727 -0.52185,-0.219727 -0.46691,0 -0.8789,0.219727 -0.71411,0.384521 -2.1698,2.142334 -2.27967,2.69165 -4.94385,6.976318 -1.15356,1.812744 -1.97754,4.092407 -1.15356,3.131104 -1.31836,3.762818 l -0.8789,3.460693 h -4.20227 l 5.08117,-17.056275 q 0.87891,-2.966308 0.87891,-4.229736 0,-0.494385 -0.41199,-0.823974 -0.54932,-0.439454 -1.45569,-0.439454 -0.57678,0 -2.11487,0.247193 z"
       style="font-style:italic;font-variant:normal;font-weight:normal;font-stretch:normal;font-size:56.25px;font-family:'Times New Roman';-inkscape-font-specification:'Times New Roman, Italic'"
       id="path3381"
       inkscape:connector-curvature="0" />
  </g>
</svg>
